<?xml version="1.0" encoding="utf-8"?>
<!-- Generator: Adobe Illustrator 22.0.0, SVG Export Plug-In . SVG Version: 6.00 Build 0)  -->
<svg version="1.1" id="Capa_1" xmlns="http://www.w3.org/2000/svg" xmlns:xlink="http://www.w3.org/1999/xlink" x="0px" y="0px"
	 viewBox="0 0 480 480" style="enable-background:new 0 0 480 480;" xml:space="preserve">
<style type="text/css">
	.st0{fill:#424745;}
	.st1{fill:#0CB4AB;}
</style>
<g>
	<g>
		<path class="st0" d="M232,220.4c-11.9,1.6-23,7.1-31.6,15.6l-80.6,80.2c-6.6,3.2-12.8,7.1-18.5,11.8H0v16h96v120H0v16h313.5
			c11.1,0,21.9-3.3,31.1-9.4l120.5-80.4c15.6-10.6,19.6-31.7,9.1-47.3c-6.2-9.2-16.6-14.8-27.7-14.9c-5.6,0-11,1.4-15.9,4
			l-35.9,19.3L279.5,236.2c-8.5-8.5-19.6-14-31.5-15.7 M211.7,247.4c15.7-15.5,40.9-15.5,56.5,0.1l111.8,111.8l-40.1,21.6
			c9.3-17.6,2.6-39.4-15-48.7c-5.2-2.8-11-4.2-16.8-4.2h-89.1c-19-15.4-43.3-22.7-67.7-20.4L211.7,247.4z M464,362.3
			c0,5.9-2.9,11.4-7.8,14.6l-120.5,80.4c-6.6,4.4-14.3,6.7-22.2,6.7H112V339.8c29.2-23,70.7-22.1,98.8,2.3c1.4,1.2,3.3,1.9,5.2,1.9
			h92c11,0,20,9,20,20s-9,20-20,20h-84c-4.4,0-8,3.6-8,8s3.6,8,8,8h112c1.3,0,2.6-0.3,3.8-1l98.3-53c2.6-1.4,5.4-2.1,8.3-2.1
			c9.8,0.1,17.7,8.1,17.6,17.9C464,362.1,464,362.2,464,362.3z"/>
	</g>
</g>
<g>
	<g>
		<path class="st1" d="M248,220.5V192h8c48.6-0.1,87.9-39.4,88-88c0-4.4-3.6-8-8-8h-16c-28.7,0-55.6,14.1-72,37.6V80h8
			c39.7,0,72-32.3,72-72c0-4.4-3.6-8-8-8h-16c-27,0-51.7,15.2-64,39.2C227.7,15.2,203,0,176,0h-16c-4.4,0-8,3.6-8,8
			c0,39.7,32.3,72,72,72h8v53.6C215.6,110.1,188.7,96,160,96h-16c-4.4,0-8,3.6-8,8c0.1,48.6,39.4,87.9,88,88h8v28.4 M320,112h7.6
			c-4.1,36.4-34.9,64-71.6,64h-7.6C252.6,139.6,283.3,112,320,112z M304,16h7.4c-4,27.5-27.6,48-55.4,48h-7.4
			C252.6,36.5,276.2,16,304,16z M224,64c-27.8,0-51.4-20.5-55.4-48h7.4c27.8,0,51.4,20.5,55.4,48H224z M224,176
			c-36.7,0-67.4-27.6-71.6-64h7.6c36.7,0,67.4,27.6,71.6,64H224z"/>
	</g>
</g>
<g>
	<g>
		<path class="st0" d="M56,400c-13.3,0-24,10.7-24,24s10.7,24,24,24s24-10.7,24-24S69.3,400,56,400z M56,432c-4.4,0-8-3.6-8-8
			s3.6-8,8-8s8,3.6,8,8S60.4,432,56,432z"/>
	</g>
</g>
<g>
	<g>
		<rect x="208" y="272" class="st0" width="16" height="16"/>
	</g>
</g>
<g>
	<g>
		<rect x="264" y="280" class="st0" width="16" height="16"/>
	</g>
</g>
<g>
	<g>
		<rect x="232" y="296" class="st0" width="16" height="16"/>
	</g>
</g>
<g>
	<g>
		<rect x="56" y="128" class="st0" width="16" height="16"/>
	</g>
</g>
<g>
	<g>
		<rect x="56" y="160" class="st0" width="16" height="16"/>
	</g>
</g>
<g>
	<g>
		<rect x="72" y="144" class="st0" width="16" height="16"/>
	</g>
</g>
<g>
	<g>
		<rect x="40" y="144" class="st0" width="16" height="16"/>
	</g>
</g>
<g>
	<g>
		<rect x="420" y="23" class="st0" width="16" height="16"/>
	</g>
</g>
<g>
	<g>
		<rect x="420" y="55" class="st0" width="16" height="16"/>
	</g>
</g>
<g>
	<g>
		<rect x="436" y="39" class="st0" width="16" height="16"/>
	</g>
</g>
<g>
	<g>
		<rect x="404" y="39" class="st0" width="16" height="16"/>
	</g>
</g>
</svg>
