<?xml version="1.0" encoding="utf-8"?>
<!-- Generator: Adobe Illustrator 22.0.0, SVG Export Plug-In . SVG Version: 6.00 Build 0)  -->
<svg version="1.1" id="Layer_2" xmlns="http://www.w3.org/2000/svg" xmlns:xlink="http://www.w3.org/1999/xlink" x="0px" y="0px"
	 viewBox="0 0 511.8 452" style="enable-background:new 0 0 511.8 452;" xml:space="preserve">
<style type="text/css">
	.st0{fill:#424745;}
	.st1{fill:#0CB4AB;}
</style>
<path class="st0" d="M248.8,221.9h-49.2c-2.9,0-5.6,1.8-6.6,4.6l-25,67.4h-51.5c-2.9,0-5.5,1.8-6.6,4.6L85,366H33.7
	c-2.9,0-5.6,1.8-6.6,4.6l-26.7,72c-0.8,2.1-0.5,4.5,0.8,6.4c1.3,1.9,3.5,3,5.8,3h497.8c3.9,0,7-3.1,7-7c0-0.8-0.1-1.7-0.4-2.5l0,0
	l-26.7-72c-1-2.7-3.6-4.6-6.6-4.6h-51.5l-25-67.5c-1-2.7-3.6-4.6-6.6-4.6h-51.3l-25-67.4c-1-2.8-3.6-4.6-6.6-4.6h-49.4 M390.1,307.9
	l21.5,58H265.8l21.5-58H390.1z M255.8,352.8l-16.6-44.9h33.2L255.8,352.8z M204.5,235.9h102.8l21.5,58H183L204.5,235.9z
	 M121.4,307.9h102.8l21.5,58H99.9L121.4,307.9z M17.1,438l21.5-58h102.8l21.5,58H17.1z M156.3,380h33.3l-16.6,44.9L156.3,380z
	 M183,438l21.5-58h102.8l21.5,58H183z M322.2,380h33.3l-16.6,44.9L322.2,380z M348.9,438l21.5-58h102.8l21.5,58H348.9z"/>
<path class="st1" d="M314.4,221.9H265v-36.2h39.2c35,0,63.4-28.4,63.4-63.4c0-3.9-3.2-7-7-7h-46.2c-19.2,0-37.4,8.8-49.4,23.8V94.4
	h26.6c26.5,0,48-21.5,48-48c0-3.9-3.2-7-7-7H299c-16.8,0-32.3,8.8-41,23.2c-8.7-14.4-24.2-23.2-41-23.2h-33.6c-3.9,0-7,3.1-7,7
	c0,26.5,21.5,48,48,48H251V139c-12-15-30.2-23.7-49.4-23.8h-46.2c-3.9,0-7,3.1-7,7c0,35,28.4,63.4,63.4,63.4H251v36.2h-49.2
	 M314.4,129.3h38.8c-3.5,24.3-24.3,42.4-48.9,42.4h-38.8C269,147.4,289.8,129.3,314.4,129.3z M299,53.4h25.9
	c-3.3,15.7-17.2,27-33.2,27h-25.9C269.1,64.7,283,53.5,299,53.4z M224.4,80.4c-16.1,0-29.9-11.3-33.3-27H217
	c16.1,0,29.9,11.3,33.3,27H224.4z M211.8,171.7c-24.6,0-45.4-18.1-48.9-42.4h38.7c24.6,0,45.4,18.1,48.9,42.4H211.8z"/>
<g>
	<g>
		<rect x="437.8" y="197.7" class="st0" width="16" height="16"/>
	</g>
</g>
<g>
	<g>
		<rect x="437.8" y="229.7" class="st0" width="16" height="16"/>
	</g>
</g>
<g>
	<g>
		<rect x="453.8" y="213.7" class="st0" width="16" height="16"/>
	</g>
</g>
<g>
	<g>
		<rect x="421.8" y="213.7" class="st0" width="16" height="16"/>
	</g>
</g>
<g>
	<g>
		<rect x="379.6" class="st0" width="16" height="16"/>
	</g>
</g>
<g>
	<g>
		<rect x="379.6" y="32" class="st0" width="16" height="16"/>
	</g>
</g>
<g>
	<g>
		<rect x="395.6" y="16" class="st0" width="16" height="16"/>
	</g>
</g>
<g>
	<g>
		<rect x="363.6" y="16" class="st0" width="16" height="16"/>
	</g>
</g>
<g>
	<g>
		<rect x="67.9" y="189.7" class="st0" width="16" height="16"/>
	</g>
</g>
<g>
	<g>
		<rect x="67.9" y="221.7" class="st0" width="16" height="16"/>
	</g>
</g>
<g>
	<g>
		<rect x="83.9" y="205.7" class="st0" width="16" height="16"/>
	</g>
</g>
<g>
	<g>
		<rect x="51.9" y="205.7" class="st0" width="16" height="16"/>
	</g>
</g>
</svg>
