<?xml version="1.0" encoding="utf-8"?>
<!-- Generator: Adobe Illustrator 22.0.0, SVG Export Plug-In . SVG Version: 6.00 Build 0)  -->
<svg version="1.1" id="Capa_1" xmlns="http://www.w3.org/2000/svg" xmlns:xlink="http://www.w3.org/1999/xlink" x="0px" y="0px"
	 viewBox="0 0 512 463.2" style="enable-background:new 0 0 512 463.2;" xml:space="preserve">
<style type="text/css">
	.st0{fill:#424745;}
	.st1{fill:#0CB4AB;}
</style>
<g>
	<g>
		<path class="st0" d="M442.5,217.4l-15.8-27.1c-2.1-3.6-6.7-4.8-10.2-2.7c-3.6,2.1-4.8,6.7-2.7,10.2l10.2,17.4h-96.2l48.1-82.4
			l14.1,24.1c2.1,3.6,6.7,4.8,10.2,2.7c3.6-2.1,4.8-6.7,2.7-10.2l-19.7-33.8c-1.8-3.2-5.3-5.1-8.9-5.1H137.8c-3.7,0-7.1,2-8.9,5.1
			L69.5,217.4c-2.1,3.7-1.8,8.2,0.7,11.5l103.7,134.4c1.5,1.9,3.7,2.9,5.9,2.9c1.6,0,3.2-0.5,4.6-1.6c3.3-2.5,3.9-7.2,1.4-10.5
			l-95.6-124h101.3l49.2,195.2l-26.1-33.8c-2.5-3.3-7.2-3.9-10.5-1.4c-3.3,2.5-3.9,7.2-1.4,10.5l45.1,58.4c2,2.6,5,4,8.2,4
			s6.2-1.5,8.2-4l177.6-230.2C444.3,225.6,444.6,221.1,442.5,217.4z M362.8,125.5l-47.9,82.1l-46.1-82.1L362.8,125.5L362.8,125.5z
			 M302.1,215.3h-92.1l46.1-82L302.1,215.3z M88.1,215.3l48.1-82.4l48.1,82.4L88.1,215.3L88.1,215.3z M149.2,125.5h94.1l-46.1,82.1
			L149.2,125.5z M256,425.2l-49.2-194.9h98.3L256,425.2z M271.4,425.4l49.2-195.2h101.3L271.4,425.4z"/>
	</g>
</g>
<g>
	<g>
		<path class="st1" d="M256,0c-4.1,0-7.5,3.3-7.5,7.5v33.9c0,4.1,3.3,7.5,7.5,7.5c4.1,0,7.5-3.3,7.5-7.5V7.5
			C263.5,3.3,260.1,0,256,0z"/>
	</g>
</g>
<g>
	<g>
		<path class="st1" d="M437,58.4c-2.9-2.9-7.6-2.9-10.6,0l-24,24c-2.9,2.9-2.9,7.6,0,10.6c1.5,1.5,3.4,2.2,5.3,2.2s3.8-0.7,5.3-2.2
			l24-24C439.9,66,439.9,61.3,437,58.4z"/>
	</g>
</g>
<g>
	<g>
		<path class="st1" d="M504.5,231.9h-33.9c-4.1,0-7.5,3.3-7.5,7.5s3.3,7.5,7.5,7.5h33.9c4.1,0,7.5-3.3,7.5-7.5
			C512,235.3,508.7,231.9,504.5,231.9z"/>
	</g>
</g>
<g>
	<g>
		<path class="st1" d="M41.3,231.9H7.5c-4.1,0-7.5,3.3-7.5,7.5s3.3,7.5,7.5,7.5h33.9c4.1,0,7.5-3.3,7.5-7.5
			C48.8,235.3,45.5,231.9,41.3,231.9z"/>
	</g>
</g>
<g>
	<g>
		<path class="st1" d="M109.5,82.3l-24-24c-2.9-2.9-7.6-2.9-10.6,0c-2.9,2.9-2.9,7.6,0,10.6l24,24c1.5,1.5,3.4,2.2,5.3,2.2
			c1.9,0,3.8-0.7,5.3-2.2C112.4,90,112.4,85.2,109.5,82.3z"/>
	</g>
</g>
</svg>
