<?xml version="1.0" encoding="utf-8"?>
<!-- Generator: Adobe Illustrator 22.0.0, SVG Export Plug-In . SVG Version: 6.00 Build 0)  -->
<svg version="1.1" id="Capa_1" xmlns="http://www.w3.org/2000/svg" xmlns:xlink="http://www.w3.org/1999/xlink" x="0px" y="0px"
	 viewBox="0 0 512.3 512.3" style="enable-background:new 0 0 512.3 512.3;" xml:space="preserve">
<style type="text/css">
	.st0{fill:#424745;}
	.st1{fill:#0CB4AB;}
</style>
<g transform="translate(-1 -1)">
	<g>
		<g>
			<path class="st0" d="M293.8,246c3.9-4.9,6.1-11,6.1-17.3v-2.8c-0.1-14.5-11.1-26.7-25.6-28.2v-8.8c0-4.7-3.8-8.5-8.5-8.5
				s-8.5,3.8-8.5,8.5v8.5h-17.1v-8.5c0-4.7-3.8-8.5-8.5-8.5s-8.5,3.8-8.5,8.5v8.5h-8.5c-4.7,0-8.5,3.8-8.5,8.5s3.8,8.5,8.5,8.5h56.6
				c6.4-0.1,11.6,5,11.6,11.4v2.8c-0.1,6.4-5.3,11.5-11.6,11.4h-31c0-4.7-3.8-8.5-8.5-8.5s-8.5,3.8-8.5,8.5v25.6
				c0,4.7,3.8,8.5,8.5,8.5s8.5-3.8,8.5-8.5v-8.5h34.5c9.1-0.1,16.6,7.2,16.7,16.3v1.6c-0.1,9.1-7.6,16.4-16.7,16.3h-60.1
				c-4.7,0-8.5,3.8-8.5,8.5s3.8,8.5,8.5,8.5h8.5v8.5c0,4.7,3.8,8.5,8.5,8.5s8.5-3.8,8.5-8.5v-8.5h17.1v8.5c0,4.7,3.8,8.5,8.5,8.5
				s8.5-3.8,8.5-8.5v-8.5h0.4c18.5,0.1,33.6-14.8,33.8-33.3v-1.6C308.4,262.4,302.9,252.1,293.8,246z"/>
			<path class="st1" d="M251.1,160.8c1.6,1.6,3.8,2.4,6.1,2.5c0.5,0,1.1-0.1,1.6-0.2c0.6-0.1,1.1-0.3,1.6-0.5c0.5-0.2,1-0.4,1.5-0.8
				c0.5-0.3,0.9-0.7,1.4-1c0.8-0.8,1.4-1.8,1.8-2.8c0.4-1,0.7-2.1,0.7-3.2c0-2.3-0.9-4.4-2.5-6.1c-0.4-0.3-0.9-0.7-1.4-1
				c-0.4-0.3-0.9-0.6-1.5-0.8c-0.5-0.3-1.1-0.4-1.6-0.5c-2.8-0.5-5.6,0.3-7.7,2.3c-0.4,0.4-0.7,0.8-1,1.3c-0.3,0.5-0.6,1-0.8,1.5
				c-0.2,0.5-0.4,1-0.5,1.5c-0.1,0.6-0.2,1.1-0.2,1.7c0,1.1,0.2,2.2,0.7,3.2C249.8,159,250.4,160,251.1,160.8z"/>
			<path class="st1" d="M263.3,353.5c-0.4-0.3-0.9-0.7-1.4-1c-0.4-0.3-0.9-0.6-1.5-0.8c-0.5-0.3-1.1-0.4-1.6-0.5
				c-2.8-0.6-5.7,0.3-7.7,2.3c-0.8,0.8-1.4,1.8-1.8,2.8c-0.4,1-0.7,2.1-0.7,3.2c0,0.6,0.1,1.1,0.2,1.7c0.1,0.5,0.3,1.1,0.5,1.5
				c0.2,0.5,0.4,1.1,0.8,1.5c0.3,0.4,0.7,0.9,1,1.3c1.6,1.6,3.8,2.4,6.1,2.5c0.5,0,1.1-0.1,1.6-0.2c0.6-0.1,1.1-0.3,1.6-0.5
				c0.5-0.2,1-0.4,1.5-0.8c0.5-0.3,0.9-0.7,1.4-1c1.6-1.6,2.5-3.8,2.5-6.1c0-1.1-0.2-2.2-0.7-3.2C264.6,355.2,264,354.3,263.3,353.5
				z"/>
			<path class="st1" d="M222.2,169.4L222.2,169.4c2.2,0,4.4-0.9,6-2.5c0.4-0.4,0.8-0.8,1.1-1.3c0.3-0.5,0.5-0.9,0.8-1.4
				c0.2-0.5,0.3-1.1,0.5-1.6c0.1-0.6,0.2-1.1,0.2-1.7c0-2.3-0.9-4.4-2.6-6c-0.4-0.4-0.8-0.8-1.3-1.1c-0.4-0.3-0.9-0.5-1.4-0.8
				c-0.5-0.2-1.1-0.3-1.6-0.5c-2.8-0.5-5.7,0.4-7.7,2.4c-2.4,2.4-3.2,6.1-1.8,9.3C215.6,167.4,218.8,169.4,222.2,169.4z"/>
			<path class="st1" d="M298.2,347.3c-0.4-0.4-0.8-0.8-1.3-1.1c-0.5-0.3-0.9-0.5-1.5-0.8c-0.5-0.2-1.1-0.3-1.6-0.4
				c-1.1-0.3-2.2-0.3-3.3,0c-0.6,0.1-1.1,0.2-1.6,0.4c-0.5,0.3-1,0.5-1.5,0.8c-0.5,0.3-0.9,0.7-1.3,1.1c-0.8,0.8-1.5,1.7-1.9,2.7
				c-0.4,1.1-0.7,2.2-0.7,3.3c0,2.3,0.9,4.4,2.6,6c0.4,0.4,0.8,0.8,1.3,1.1c0.4,0.3,0.9,0.5,1.5,0.8c0.5,0.2,1.1,0.4,1.6,0.5
				c0.5,0.1,1.1,0.2,1.6,0.2c0.6,0,1.1-0.1,1.7-0.2c0.6-0.1,1.1-0.3,1.6-0.5c0.5-0.3,0.9-0.5,1.5-0.8c0.5-0.3,0.9-0.7,1.3-1.1
				c1.6-1.6,2.5-3.7,2.5-6c0-1.1-0.2-2.3-0.6-3.3C299.7,349,299,348.1,298.2,347.3z"/>
			<path class="st1" d="M183.5,181.9c0.3,0.5,0.5,1,0.8,1.4c0.3,0.5,0.7,0.9,1.1,1.4c0.8,0.8,1.7,1.4,2.7,1.8
				c1.1,0.4,2.2,0.7,3.3,0.7c2.2,0,4.4-0.9,6-2.5c0.4-0.4,0.8-0.9,1.1-1.4c0.3-0.4,0.5-0.9,0.8-1.4c0.2-0.5,0.3-1,0.5-1.6
				c0.1-0.5,0.2-1.1,0.2-1.6c0-0.6-0.1-1.1-0.2-1.7c-0.2-0.5-0.3-1.1-0.5-1.6c-0.3-0.5-0.5-0.9-0.8-1.4c-0.3-0.4-0.7-0.9-1.1-1.3
				c-0.8-0.8-1.7-1.4-2.7-1.9c-2.1-0.9-4.5-0.9-6.6,0c-1,0.5-1.9,1.1-2.7,1.9c-0.4,0.4-0.8,0.8-1.1,1.3c-0.3,0.5-0.5,0.9-0.8,1.4
				c-0.2,0.5-0.3,1.1-0.5,1.6c-0.1,0.6-0.2,1.1-0.2,1.7c0,0.5,0.1,1.1,0.2,1.6C183.1,180.9,183.3,181.4,183.5,181.9z"/>
			<path class="st1" d="M327.8,328.5c-0.5-0.3-0.9-0.5-1.5-0.8c-0.5-0.2-1.1-0.4-1.6-0.5c-2.5-0.5-5.1,0.2-7.1,1.8
				c-2,1.6-3.1,4-3.2,6.6c0,1.1,0.3,2.3,0.7,3.3c0.4,1,1.1,2,1.9,2.7c1.6,1.6,3.7,2.5,6,2.5c0.6,0,1.2,0,1.7-0.2
				c0.5-0.1,1.1-0.2,1.6-0.4c0.5-0.2,1-0.5,1.5-0.9c0.5-0.3,0.9-0.6,1.3-1c0.8-0.8,1.4-1.7,1.9-2.7c0.4-1.1,0.6-2.2,0.6-3.3
				c0-2.3-0.9-4.4-2.5-6.1C328.6,329.1,328.2,328.8,327.8,328.5z"/>
			<path class="st1" d="M162.5,199.9c-1.6,1.6-2.5,3.8-2.5,6.1c0,1.1,0.2,2.2,0.6,3.2c0.5,1,1.1,2,1.9,2.8c1.6,1.6,3.8,2.5,6.1,2.5
				c3.4,0,6.5-2.1,7.9-5.3c0.4-1,0.7-2.1,0.7-3.2c0-2.3-0.9-4.5-2.6-6.1C171.1,196.7,165.9,196.7,162.5,199.9z"/>
			<path class="st1" d="M351.9,302.3c-2-2-4.9-2.9-7.7-2.3c-0.6,0.1-1.1,0.2-1.6,0.5c-0.5,0.2-1,0.4-1.5,0.8c-0.5,0.3-0.9,0.6-1.3,1
				c-1.6,1.6-2.5,3.8-2.5,6.1s0.9,4.5,2.5,6.1c0.4,0.4,0.8,0.8,1.3,1c0.4,0.3,0.9,0.6,1.5,0.8c0.5,0.3,1.1,0.4,1.6,0.5
				c0.5,0.1,1.1,0.2,1.6,0.2c2.3,0,4.4-0.9,6.1-2.5c0.8-0.8,1.4-1.8,1.8-2.8c0.9-2.1,0.9-4.4,0-6.5
				C353.3,304,352.7,303.1,351.9,302.3z"/>
			<path class="st1" d="M156.3,247.9L156.3,247.9c2.3,0,4.5-0.9,6.1-2.6c1.6-1.6,2.5-3.7,2.5-6c0-1.1-0.2-2.3-0.7-3.3
				c-0.4-1-1-1.9-1.8-2.7c-3.4-3.2-8.6-3.2-12,0c-0.8,0.8-1.5,1.7-1.9,2.7c-0.4,1.1-0.7,2.2-0.7,3.3
				C147.9,244,151.7,247.8,156.3,247.9z"/>
			<path class="st1" d="M365.9,271.6c-0.2-0.5-0.4-1-0.8-1.5c-0.3-0.5-0.7-0.9-1.1-1.3c-2-2-4.9-2.9-7.7-2.4
				c-0.5,0.2-1.1,0.3-1.6,0.5c-0.5,0.3-0.9,0.5-1.5,0.8c-0.4,0.3-0.9,0.7-1.3,1.1c-1.6,1.6-2.5,3.7-2.5,6c0,0.6,0,1.2,0.2,1.7
				c0.1,0.5,0.2,1.1,0.4,1.6c0.2,0.5,0.5,1,0.9,1.5c0.3,0.5,0.6,0.9,1,1.3c0.4,0.4,0.8,0.8,1.3,1.1c0.5,0.3,0.9,0.5,1.5,0.8
				c0.5,0.2,1.1,0.3,1.6,0.4c0.6,0.1,1.1,0.2,1.7,0.2c2.2,0,4.4-0.9,6-2.5c0.4-0.4,0.8-0.8,1.1-1.3c0.3-0.4,0.6-0.9,0.8-1.5
				c0.2-0.5,0.4-1.1,0.5-1.6c0.1-0.6,0.2-1.1,0.2-1.7c0-0.5-0.1-1.1-0.2-1.6C366.3,272.7,366.2,272.1,365.9,271.6z"/>
			<path class="st1" d="M162.4,280.9c0.8-0.8,1.4-1.7,1.8-2.7c0.5-1,0.7-2.2,0.7-3.3c0-2.2-0.9-4.4-2.5-6c-3.4-3.2-8.7-3.2-12,0
				c-1.6,1.6-2.5,3.7-2.6,6c0,1.1,0.2,2.3,0.7,3.3c0.4,1,1.1,2,1.9,2.7c1.6,1.6,3.7,2.5,6,2.5c0.6,0,1.1,0,1.7-0.2
				c0.5-0.1,1-0.2,1.5-0.4c0.5-0.3,1-0.5,1.5-0.8C161.6,281.7,162,281.3,162.4,280.9z"/>
			<path class="st1" d="M352,233.3c-1.6,1.6-2.5,3.8-2.5,6.1c0,0.5,0,1.1,0.2,1.6c0.1,0.6,0.2,1.1,0.4,1.6c0.2,0.5,0.5,1,0.9,1.4
				c0.2,0.5,0.6,0.9,1,1.3c0.4,0.4,0.8,0.8,1.3,1.1c0.5,0.3,0.9,0.5,1.5,0.8c0.5,0.2,1.1,0.3,1.6,0.5c0.6,0.1,1.1,0.2,1.7,0.2
				c2.3,0,4.4-0.9,6-2.6c0.4-0.4,0.8-0.8,1.1-1.3c0.3-0.4,0.6-0.9,0.8-1.4c0.3-0.5,0.4-1.1,0.5-1.6c0.1-0.5,0.2-1.1,0.2-1.6
				c0-0.6-0.1-1.1-0.2-1.7c-0.1-0.6-0.3-1.1-0.5-1.6c-0.2-0.5-0.5-1-0.8-1.4c-0.3-0.5-0.7-0.9-1.1-1.3c-2-2-4.9-2.9-7.7-2.3
				c-0.6,0.1-1.1,0.2-1.6,0.4c-0.5,0.3-0.9,0.5-1.5,0.8C352.8,232.6,352.4,232.9,352,233.3z"/>
			<path class="st1" d="M162.5,302.3c-3.3,3.4-3.3,8.8,0,12.1c1.6,1.6,3.8,2.5,6.1,2.5c3.5,0,6.6-2.1,7.9-5.3
				c1.3-3.2,0.6-6.9-1.9-9.3C171.1,299.1,165.9,299.1,162.5,302.3z"/>
			<path class="st1" d="M344.2,197.6c-0.6,0.1-1.1,0.2-1.6,0.5c-0.5,0.2-1,0.4-1.5,0.8c-0.5,0.3-0.9,0.6-1.3,1
				c-0.4,0.4-0.8,0.8-1.1,1.3c-0.3,0.5-0.6,1-0.8,1.5c-0.2,0.5-0.4,1-0.5,1.5c-0.1,0.6-0.2,1.1-0.2,1.7c0,2.3,0.9,4.5,2.6,6.1
				c0.4,0.4,0.8,0.7,1.3,1c0.4,0.3,0.9,0.6,1.5,0.8c0.5,0.3,1.1,0.4,1.6,0.5c0.5,0.1,1.1,0.2,1.6,0.2c0.6,0,1.1-0.1,1.7-0.2
				c0.5-0.1,1-0.3,1.5-0.5c0.5-0.2,1.1-0.4,1.5-0.8c0.4-0.3,0.9-0.7,1.3-1c0.4-0.4,0.7-0.8,1-1.3c0.3-0.5,0.6-1,0.8-1.5
				c0.2-0.5,0.4-1,0.5-1.5c0.2-1.1,0.2-2.3,0-3.4c-0.1-0.5-0.3-1.1-0.5-1.5c-0.2-0.5-0.4-1.1-0.8-1.5c-0.3-0.4-0.7-0.9-1-1.3
				C349.9,197.9,347,197,344.2,197.6z"/>
			<path class="st1" d="M199.3,332.3c-0.3-0.5-0.5-1-0.8-1.5c-0.3-0.5-0.7-0.9-1.1-1.3c-0.8-0.8-1.7-1.5-2.7-1.9
				c-2.1-0.9-4.5-0.9-6.6,0c-1,0.4-2,1.1-2.7,1.9c-0.4,0.4-0.8,0.8-1.1,1.3c-0.3,0.4-0.5,0.9-0.8,1.5c-0.2,0.5-0.3,1-0.5,1.6
				c-0.1,0.5-0.2,1.1-0.2,1.6c0,2.3,0.9,4.5,2.6,6.1c0.8,0.8,1.7,1.4,2.7,1.9c1.1,0.4,2.2,0.6,3.3,0.6c1.1,0,2.2-0.2,3.2-0.6
				c1-0.4,1.9-1.1,2.7-1.9c1.6-1.6,2.5-3.8,2.6-6.1c0-0.5-0.1-1.1-0.2-1.6C199.6,333.3,199.4,332.8,199.3,332.3z"/>
			<path class="st1" d="M317,184.7c1.6,1.6,3.7,2.6,6,2.6c0.6,0,1.1-0.1,1.7-0.2c0.6-0.1,1.1-0.3,1.6-0.5c0.5-0.2,1-0.4,1.5-0.8
				c0.4-0.3,0.9-0.7,1.3-1.1c0.8-0.8,1.4-1.7,1.9-2.7c1.2-3.2,0.5-6.8-1.9-9.3c-0.4-0.4-0.8-0.7-1.3-1c-0.5-0.3-0.9-0.6-1.5-0.9
				c-0.5-0.2-1.1-0.3-1.6-0.4c-3.1-0.7-6.3,0.5-8.3,2.9c-2,2.4-2.5,5.8-1.2,8.7C315.5,183,316.2,183.9,317,184.7z"/>
			<path class="st1" d="M228.2,347.3c-3.4-3.2-8.6-3.2-12,0c-0.8,0.8-1.4,1.7-1.9,2.7c-0.4,1.1-0.6,2.2-0.6,3.3
				c0,1.1,0.2,2.2,0.6,3.2c0.4,1,1.1,2,1.9,2.7c1.6,1.6,3.7,2.6,6,2.6s4.4-0.9,6-2.6c0.8-0.8,1.4-1.7,1.9-2.7c0.4-1,0.7-2.1,0.7-3.2
				c0-1.1-0.3-2.3-0.7-3.3C229.6,349,229,348.1,228.2,347.3z"/>
			<path class="st1" d="M287.5,168c0.4,0.3,0.9,0.5,1.5,0.8c0.5,0.2,1.1,0.3,1.6,0.4c0.5,0.1,1.1,0.2,1.6,0.2c0.6,0,1.2,0,1.7-0.2
				c0.6-0.1,1.1-0.2,1.6-0.4c0.5-0.3,0.9-0.5,1.5-0.8c0.5-0.3,0.9-0.7,1.3-1.1c3.3-3.3,3.3-8.7,0-12c-0.4-0.4-0.8-0.8-1.3-1.1
				c-0.5-0.3-1-0.5-1.5-0.8c-0.5-0.2-1.1-0.4-1.6-0.5c-1.1-0.2-2.2-0.2-3.3,0c-0.6,0.1-1.1,0.3-1.6,0.5c-0.5,0.3-1,0.5-1.5,0.8
				c-0.5,0.3-0.9,0.7-1.3,1.1c-1.6,1.6-2.6,3.7-2.6,6c0,2.3,0.9,4.4,2.6,6C286.6,167.4,287,167.7,287.5,168z"/>
			<path class="st0" d="M470.5,274.2c9.4,0,17.1-7.6,17.1-17.1v-26.8c16.6-4.3,27.5-20.3,25.3-37.3c-2.2-17-16.7-29.8-33.9-29.8
				c-17.2,0-31.7,12.7-33.9,29.8c-2.2,17,8.7,33,25.3,37.3v26.8h-68.3c0.1-38.5-15.2-75.4-42.5-102.6c-5.4-5.3-11.1-10.2-17.2-14.6
				v-10.9H462c9.4,0,17.1-7.6,17.1-17.1V93.8c16.6-4.3,27.5-20.3,25.3-37.3c-2.2-17.1-16.7-29.8-33.9-29.8s-31.7,12.8-33.9,29.8
				s8.7,33.1,25.3,37.3v18.3H342.5c-9.4,0-17,7.6-17.1,17c-18.5-9.8-38.9-15.5-59.7-16.6V95h34.1c9.4,0,17.1-7.6,17.1-17.1v-9.7
				c16.6-4.3,27.5-20.3,25.3-37.3C340.1,13.8,325.6,1,308.4,1s-31.7,12.8-33.9,29.8s8.7,33.1,25.3,37.3v9.7h-34.1
				c-9.4,0-17.1,7.6-17.1,17.1v17.5c-11.6,0.6-23,2.6-34.1,5.9V52.3c0-9.4-7.6-17.1-17.1-17.1h-86.5C106.6,18.6,90.6,7.8,73.6,9.9
				c-17.1,2.2-29.8,16.7-29.8,33.9s12.8,31.7,29.8,33.9s33.1-8.7,37.3-25.3h86.5V125c-38,17.1-66.7,49.7-79,89.4H43.9v-43.9
				c16.6-4.3,27.5-20.3,25.3-37.4c-2.2-17.1-16.7-29.8-33.9-29.8c-17.2,0-31.7,12.8-33.9,29.8s8.7,33.1,25.3,37.4v43.9
				c0,9.4,7.6,17.1,17.1,17.1h70.6c-1.5,8.4-2.3,17-2.4,25.6H95.1c-9.4,0-17.1,7.6-17.1,17.1v119.5h-9.7
				c-4.3-16.6-20.3-27.5-37.3-25.3S1.1,385,1.1,402.2s12.8,31.7,29.8,33.9s33.1-8.7,37.3-25.3H78c9.4,0,17.1-7.6,17.1-17.1V274.2
				h18.2c5.9,50.5,37.9,94.2,84.2,115v81.2H145c-4.3-16.6-20.3-27.5-37.3-25.3S77.9,461.8,77.9,479s12.8,31.7,29.8,33.9
				c17.1,2.2,33.1-8.7,37.3-25.3h52.4c9.4,0,17.1-7.6,17.1-17.1v-74.6c11.1,3.3,22.6,5.3,34.1,6v17.5c0,9.4,7.6,17.1,17.1,17.1h59.7
				v9.7c-16.6,4.3-27.5,20.3-25.3,37.4s16.7,29.8,33.9,29.8s31.7-12.8,33.9-29.8s-8.7-33.1-25.3-37.4v-9.7c0-9.4-7.6-17.1-17.1-17.1
				h-59.7v-17.5c35.5-1.9,69-16.9,94-42.1c10.1-10.1,18.7-21.7,25.5-34.3h68.2v86.5c-16.6,4.3-27.5,20.3-25.3,37.4
				s16.7,29.8,33.9,29.8s31.7-12.8,33.9-29.8s-8.7-33.1-25.3-37.4v-86.5c0-9.4-7.6-17.1-17.1-17.1h-60.6c4.2-11,7-22.5,8.3-34.1
				L470.5,274.2L470.5,274.2z M462,197.4c0-9.4,7.6-17.1,17.1-17.1s17.1,7.6,17.1,17.1c0,9.4-7.6,17.1-17.1,17.1
				C469.6,214.5,462,206.8,462,197.4z M453.5,60.9c0-9.4,7.6-17.1,17.1-17.1s17.1,7.6,17.1,17.1s-7.6,17.1-17.1,17.1
				C461.1,77.9,453.5,70.3,453.5,60.9z M291.3,35.3c0-9.4,7.6-17.1,17.1-17.1s17.1,7.6,17.1,17.1s-7.6,17.1-17.1,17.1
				C299,52.3,291.3,44.7,291.3,35.3z M78,60.9c-9.4,0-17.1-7.6-17.1-17.1S68.6,26.7,78,26.7s17.1,7.6,17.1,17.1
				C95,53.2,87.4,60.8,78,60.9z M35.3,154.7c-9.4,0-17.1-7.6-17.1-17.1c0-9.4,7.6-17.1,17.1-17.1s17.1,7.6,17.1,17.1
				S44.8,154.7,35.3,154.7z M35.3,419.3c-9.4,0-17.1-7.6-17.1-17.1s7.6-17.1,17.1-17.1s17.1,7.6,17.1,17.1
				C52.4,411.6,44.7,419.3,35.3,419.3z M112.1,496.1c-9.4,0-17.1-7.6-17.1-17.1s7.6-17.1,17.1-17.1s17.1,7.6,17.1,17.1
				C129.2,488.4,121.5,496,112.1,496.1z M334,461.9c9.4,0,17.1,7.6,17.1,17.1c0,9.4-7.6,17.1-17.1,17.1s-17.1-7.6-17.1-17.1
				S324.6,461.9,334,461.9z M347.7,347.6c-43.2,43.2-110.8,49.8-161.6,15.9c-50.8-33.9-70.5-99-47.1-155.4s83.3-88.5,143.2-76.6
				s103,64.5,103,125.5C385.3,291.1,371.8,323.7,347.7,347.6z M462,427.8c9.4,0,17.1,7.6,17.1,17.1c0,9.4-7.6,17.1-17.1,17.1
				s-17.1-7.6-17.1-17.1S452.6,427.8,462,427.8z"/>
		</g>
	</g>
</g>
</svg>
