<?xml version="1.0" encoding="utf-8"?>
<!-- Generator: Adobe Illustrator 22.0.0, SVG Export Plug-In . SVG Version: 6.00 Build 0)  -->
<svg version="1.1" id="Capa_1" xmlns="http://www.w3.org/2000/svg" xmlns:xlink="http://www.w3.org/1999/xlink" x="0px" y="0px"
	 viewBox="0 0 512 435.1" style="enable-background:new 0 0 512 435.1;" xml:space="preserve">
<style type="text/css">
	.st0{fill:#424745;}
	.st1{fill:none;}
	.st2{fill:#0CB4AB;}
</style>
<g>
	<g>
		<path class="st0" d="M86,288.7C86,288.7,85.9,288.7,86,288.7L86,288.7L86,288.7z"/>
		<path class="st0" d="M85.9,288.8L85.9,288.8c-6.6,3.9-8.2,8.3-10.8,12.7C78.1,296.8,79.7,292.6,85.9,288.8z"/>
		<g>
			<path class="st1" d="M371.8,137.9l-12.8,9.8c-2,1.5-4.6,1.9-6.9,1.2l-41.1-13.6h-81.1l-14.4,57.5V256c0,13.5,11,24.5,24.5,24.5
				s24.5-11,24.5-24.5v-64.1c0-1.4,0.4-2.8,1.1-4l16.3-26c2.2-3.5,6.8-4.6,10.4-2.4c3.5,2.2,4.6,6.8,2.4,10.4l-5.8,9.2L444.7,264
				c1,0.6,2,1.2,3,1.9l14-9.9L371.8,137.9z"/>
			<path class="st1" d="M447.7,265.8c3.8,3.1,4.6,3.6,10.2,11.8c-0.1-0.2-0.1-0.3-0.2-0.5C455.5,272.6,450.7,267.9,447.7,265.8z"/>
			<path class="st1" d="M85.9,288.8L85.9,288.8l52.4-37.9c13.9-10.1,33.1-7.3,43.5,6.3c5.2,6.8,7.4,15.3,6.2,23.8
				c-0.1,0.7-0.2,1.4-0.4,2c8.9,0.4,17.6,4.7,23.5,12.4c5.2,6.8,7.4,15.3,6.2,23.8c-0.1,0.7-0.2,1.4-0.4,2
				c8.9,0.4,17.6,4.7,23.5,12.4c5.2,6.8,7.4,15.3,6.2,23.8c-0.1,0.7-0.2,1.4-0.4,2c8.9,0.4,17.6,4.7,23.5,12.4
				c4.4,5.7,6.6,12.6,6.5,19.7l34,18.6c7.9,4.3,18.1,1.3,22.4-6.6c4.3-7.9,1.3-18.1-6.6-22.4l-48.5-26.5c-3.6-2-5-6.6-3-10.2
				c2-3.6,6.5-5,10.2-3l62.6,34.1c7.9,4.3,18.1,1.3,22.4-6.6c4.4-8,1.4-18.1-6.6-22.4l-59.8-32.6c-3.6-2-5-6.6-3-10.2
				c2-3.6,6.5-5,10.2-3l73.9,40.3c8,4.4,18.1,1.4,22.4-6.6c4.4-8,1.4-18.1-6.6-22.4l-72.8-39.7c-3.6-2-5-6.6-3-10.2
				c2-3.6,6.5-5,10.2-3l86.9,47.4c7.9,4.3,18.1,1.3,22.4-6.6c4.3-7.9,1.3-18.1-6.6-22.4l-156.6-85.3l-1.4,2.2v62
				c0,21.8-17.8,39.6-39.6,39.6c-21.8,0-39.6-17.8-39.6-39.6v-64.1c0-0.6,0.1-1.2,0.2-1.8l7.4-29.5l-12.8-5.4l-35.4,4.1
				c-1.6,0.2-3.2-0.1-4.6-1l-14-8.1L67,278.7L85.9,288.8c-6.6,3.9-8.2,8.3-10.8,12.7C78.1,296.8,79.7,292.6,85.9,288.8z"/>
			<path class="st1" d="M170,266.3c-3.3-4.3-8.1-6.5-13.1-6.5c-3.4,0-6.8,1-9.7,3.2L94,301.5c-7.4,5.3-9,15.7-3.7,23.1
				c5.3,7.4,15.7,9,23.1,3.7l53.2-38.5C174,284.4,175.6,273.6,170,266.3z"/>
			<path class="st1" d="M199.3,304.5c-2.9-3.8-7.4-6.2-12.2-6.5c-2.5-0.1-5,0.3-7.3,1.3c-1.6,0.7-3,1.7-4.4,2.7l-39.7,28.7
				c-7.4,5.3-9.5,16.3-3.9,23.7c5.4,7.1,15.6,8.7,22.9,3.4l41.3-29.9C203.3,322.6,204.9,311.8,199.3,304.5z"/>
			<path class="st1" d="M235.1,377.5l-1.1,0.8l-16.4,11.9c-7.3,5.3-9,15.8-3.7,23.1c5.3,7.3,15.8,9,23.1,3.7l17.5-12.7
				c3.6-2.6,6-6.5,6.7-11c0.7-4.5-0.5-8.9-3.2-12.5C252.5,373.8,242.3,372.3,235.1,377.5z"/>
			
				<rect x="-10.9" y="191.7" transform="matrix(0.5 -0.866 0.866 0.5 -128.1476 175.381)" class="st1" width="197.4" height="13.9"/>
			<path class="st1" d="M228.6,342.6c-5.5-7.1-15.5-8.6-22.8-3.3l-1.1,0.8c0,0-28.3,20.5-28.3,20.5c-7.4,5.3-9,15.7-3.7,23.1
				c2.6,3.6,6.4,5.9,10.8,6.6c4.4,0.7,8.7-0.3,12.3-2.9l29.4-21.3C232.6,360.7,234.2,349.9,228.6,342.6z"/>
			<g>
				<path class="st1" d="M170,266.3c-3.3-4.3-8.1-6.5-13.1-6.5c-3.4,0-6.8,1-9.7,3.2L94,301.5c-7.4,5.3-9,15.7-3.7,23.1
					c5.3,7.4,15.7,9,23.1,3.7l53.2-38.5C174,284.4,175.6,273.6,170,266.3z"/>
				<path class="st1" d="M199.3,304.5c-2.9-3.8-7.4-6.2-12.2-6.5c-2.5-0.1-5,0.3-7.3,1.3c-1.6,0.7-3,1.7-4.4,2.7l-39.7,28.7
					c-7.4,5.3-9.5,16.3-3.9,23.7c5.4,7.1,15.6,8.7,22.9,3.4l41.3-29.9C203.3,322.6,204.9,311.8,199.3,304.5z"/>
				<path class="st1" d="M235.1,377.5l-1.1,0.8l-16.4,11.9c-7.3,5.3-9,15.8-3.7,23.1c5.3,7.3,15.8,9,23.1,3.7l17.5-12.7
					c3.6-2.6,6-6.5,6.7-11c0.7-4.5-0.5-8.9-3.2-12.5C252.5,373.8,242.3,372.3,235.1,377.5z"/>
				<path class="st1" d="M447.7,265.8l14-9.9l-89.9-118l-12.8,9.8c-2,1.5-4.6,1.9-6.9,1.2l-41.1-13.6h-81.1l-14.4,57.5V256
					c0,14.2,12,25.6,26.4,24.5c12.5-0.9,22.7-12.5,22.7-25v-63.6c0-1.4,0.4-2.8,1.1-4l16.3-26c2.2-3.5,6.8-4.6,10.4-2.4
					c3.5,2.2,4.6,6.8,2.4,10.4l-5.8,9.2L444.7,264C445.7,264.6,446.7,265.2,447.7,265.8z"/>
				<path class="st1" d="M228.6,342.6c-5.5-7.1-15.5-8.6-22.8-3.3l-1.1,0.8c0,0-28.3,20.5-28.3,20.5c-7.4,5.3-9,15.7-3.7,23.1
					c2.6,3.6,6.4,5.9,10.8,6.6c4.4,0.7,8.7-0.3,12.3-2.9l29.4-21.3C232.6,360.7,234.2,349.9,228.6,342.6z"/>
				<path class="st1" d="M457.8,277.7c-0.1-0.2-0.1-0.3-0.2-0.5c-2.1-4.6-7-9.3-9.9-11.4C451.4,269,452.3,269.5,457.8,277.7z"/>
				<path class="st0" d="M510.4,251.3c-2.6-3.3-7.3-3.8-10.6-1.2l-14.7,11.7L365.9,105.4l67.9-43.6c3.2-2.1,4.6-6.3,3-9.7
					c-2-4.1-7.1-5.5-10.8-3.1l-75,48.1c-3.6,2.3-4.5,7.4-1.9,10.9l13.6,17.9l-9.7,7.4l-38.5-12.7c-0.8-0.2-1.6-0.4-2.4-0.4h-88.2
					c-3.4,0-6.5,2.3-7.3,5.7l-5,19.8c-0.9,5.2-2.4,9.7-3.7,14.8l-7.4,29.5c-0.1,0.6-0.2,1.2-0.2,1.8v63.4c0,21,16.1,38.9,37,40.2
					c23,1.5,42.1-16.8,42.1-39.5v-62l1.4-2.2c3-4,5-8.8,8-12.8l5.8-9.2c2.2-3.5,1.1-8.2-2.4-10.4c-3.5-2.2-8.2-1.1-10.4,2.4
					l-16.3,26c-0.7,1.2-1.1,2.6-1.1,4v63.6c0,12.5-10.2,24-22.7,25c-14.4,1.1-26.4-10.3-26.4-24.5v-63.2l14.4-57.5h81.1l41.1,13.6
					c2.3,0.8,5,0.3,6.9-1.2l12.8-9.8l89.9,118l-14,9.9c3,2,7.8,6.7,9.9,11.4c0.1,0.2,0.1,0.3,0.2,0.5l0,0c0,0,0,0,0,0l12.9-9.9
					l7,9.1c2.5,3.3,7.4,3.9,10.6,1.3l20.7-16.5C512.4,259.3,513,254.6,510.4,251.3z"/>
				<path class="st0" d="M276.3,391.3c0.1-7.1-2.1-14-6.5-19.7c-5.9-7.7-14.6-11.9-23.5-12.4c0.1-0.7,0.3-1.3,0.4-2
					c1.2-8.5-1-17-6.2-23.8c-5.9-7.7-14.6-11.9-23.5-12.4c0.1-0.7,0.3-1.3,0.4-2c1.2-8.5-1-17-6.2-23.8
					c-5.9-7.7-14.6-11.9-23.5-12.4c0.1-0.7,0.3-1.3,0.4-2c1.2-8.5-1-17-6.2-23.8c-10.5-13.6-29.6-16.4-43.5-6.3L86,288.7l-0.1,0.1
					c-6.2,3.8-7.8,8-10.8,12.7c-4.7,10.1-4,22.3,3,31.9c6.2,8.5,15.8,13,25.6,13c3.3,0,6.5-0.5,9.7-1.5c0,6.7,2.2,13.2,6.2,18.5
					c6.2,8.2,15.7,12.5,25.3,12.5c3.2,0,6.4-0.5,9.6-1.5c0.1,7.9,3.1,15.8,9.4,22c3.5,3.5,7.7,6.1,12.4,7.6c3.3,1,6.6,1.5,9.8,1.5
					c3.3,0,6.5-0.5,9.6-1.5c0.1,7.5,2.9,14.7,8.1,20.6c4.4,5,10.3,8.4,16.8,9.8c2.2,0.5,4.5,0.7,6.7,0.7c6.6,0,13-2.1,18.4-6
					l17.5-12.7c3.8-2.7,6.9-6.2,9.1-10.2C274.9,401.3,277,397,276.3,391.3z M113.4,328.2c-7.4,5.3-17.7,3.7-23.1-3.7
					c-5.3-7.4-3.7-17.7,3.7-23.1l53.2-38.5c3-2.1,6.3-3.2,9.7-3.2c4.9,0,9.8,2.2,13.1,6.5c5.6,7.3,4,18.1-3.4,23.5L113.4,328.2z
					 M154.6,357.8c-7.2,5.2-17.5,3.7-22.9-3.4c-5.6-7.4-3.4-18.3,3.9-23.7l39.7-28.7c1.4-1,2.8-2,4.4-2.7c2.3-1,4.8-1.4,7.3-1.3
					c4.8,0.3,9.3,2.7,12.2,6.5c5.6,7.3,4,18.1-3.4,23.5L154.6,357.8z M195.8,387.4c-3.6,2.6-7.9,3.6-12.3,2.9
					c-4.4-0.7-8.2-3.1-10.8-6.6c-5.3-7.4-3.7-17.7,3.7-23.1c0,0,28.3-20.5,28.3-20.5l1.1-0.8c7.3-5.3,17.3-3.8,22.8,3.3
					c5.6,7.3,4,18.1-3.4,23.5L195.8,387.4z M261.1,393.3c-0.6,4.5-3,8.4-6.7,11l-17.5,12.7c-7.3,5.3-17.8,3.6-23.1-3.7
					c-5.3-7.3-3.6-17.8,3.7-23.1l16.4-11.9l1.1-0.8c7.2-5.2,17.4-3.7,22.8,3.3C260.6,384.4,261.8,388.8,261.1,393.3z"/>
				<path class="st2" d="M447.7,265.8c-1-0.7-2-1.3-3-1.9l-155.8-84.9c-3,4-5,8.8-8,12.8l156.6,85.3c7.9,4.3,10.9,14.5,6.6,22.4
					c-4.3,7.9-14.5,10.9-22.4,6.6l-86.9-47.4c-3.6-2-8.2-0.6-10.2,3c-2,3.6-0.6,8.2,3,10.2l72.8,39.7c8,4.4,11,14.4,6.6,22.4
					c-4.4,8-14.4,11-22.4,6.6l-73.9-40.3c-3.6-2-8.2-0.6-10.2,3c-2,3.6-0.6,8.2,3,10.2l59.8,32.6c8,4.4,11,14.4,6.6,22.4
					c-4.3,7.9-14.5,10.9-22.4,6.6l-62.6-34.1c-3.6-2-8.2-0.6-10.2,3c-2,3.6-0.6,8.2,3,10.2l48.5,26.5c7.9,4.3,10.9,14.5,6.6,22.4
					c-4.3,7.9-14.5,10.9-22.4,6.6l-34-18.6c-0.3,7.9-1.5,10-4,14.9l0,0l30.8,16.8c4.7,2.6,9.9,3.9,15.1,3.9c4,0,8-0.8,11.9-2.3
					c5.5-2.2,10.3-5.9,13.7-10.7c4.7-6.6,6.7-14.3,5.8-22c1.9,0.3,3.8,0.5,5.7,0.5c11.2,0,22-6,27.8-16.5c3.2-5.9,4.3-12.4,3.6-18.6
					c1.9,0.3,3.8,0.5,5.7,0.5c11.2,0,22-6,27.8-16.5c3.1-5.8,4.4-12.2,3.7-18.6c1.9,0.3,3.8,0.5,5.7,0.5c3,0,6-0.4,8.9-1.3
					c7.7-2.2,14.3-7.4,18.4-14.3c4.5-7.6,5.5-16.5,3.1-24.9c-0.5-1.8-1.2-3.4-2-5.1c0,0,0,0,0,0C452.3,269.5,451.4,269,447.7,265.8z
					"/>
				<path class="st0" d="M457.8,277.7C457.9,277.7,457.9,277.7,457.8,277.7C457.9,277.7,457.9,277.7,457.8,277.7L457.8,277.7z"/>
			</g>
			<path class="st2" d="M85.9,288.8L67,278.7l74.2-128.5l14,8.1c1.4,0.8,3,1.2,4.6,1l35.4-4.1l12.8,5.4c1.3-5,2.8-9.5,3.7-14.8
				l-12.5-5.3c-1.2-0.5-2.5-0.7-3.8-0.5l-34.8,4.1l-11.8-6.9l11.3-19.5c2-3.5,0.8-8.2-2.8-10.3L11.3,23.1C7.7,21.1,3.1,22.3,1,25.9
				c-2.1,3.6-0.8,8.2,2.8,10.3l114.4,66l-98.7,171l-8.1-4.7c-3.6-2.1-8.2-0.8-10.3,2.8c-2.1,3.6-0.8,8.2,2.8,10.3l39.7,22.9
				c3.5,2,8.2,0.8,10.3-2.8l5.7-10l16.2,8.6c-0.2,0.4-0.4,0.7-0.5,1.1C77.7,297.1,79.3,292.6,85.9,288.8z M44.5,287.6l-12-7
				l98.7-171l12,7L44.5,287.6z"/>
		</g>
		<path class="st0" d="M447.7,265.8c3.8,3.1,4.6,3.6,10.2,11.8c-0.1-0.2-0.1-0.3-0.2-0.5C455.5,272.6,450.7,267.9,447.7,265.8z"/>
	</g>
</g>
<g>
	<g>
		<path class="st0" d="M510.8,3.5c-2.2-3.5-6.9-4.5-10.4-2.3l-42.1,27c-3.5,2.2-4.5,6.9-2.3,10.4c1.4,2.2,3.9,3.5,6.3,3.5
			c1.4,0,2.8-0.4,4.1-1.2l42.1-27C512,11.6,513.1,6.9,510.8,3.5z"/>
	</g>
</g>
</svg>
