<?xml version="1.0" encoding="utf-8"?>
<!-- Generator: Adobe Illustrator 22.0.0, SVG Export Plug-In . SVG Version: 6.00 Build 0)  -->
<svg version="1.1" id="Layer_5" xmlns="http://www.w3.org/2000/svg" xmlns:xlink="http://www.w3.org/1999/xlink" x="0px" y="0px"
	 viewBox="0 0 512 512" style="enable-background:new 0 0 512 512;" xml:space="preserve">
<style type="text/css">
	.st0{fill:#0CB4AB;}
	.st1{fill:#FFFFFF;}
</style>
<path class="st0" d="M96.3,308.6l-14.5,6.8c21.8,46.5,69,76.6,120.4,76.6h5.8v-16h-5.8C157,376,115.5,349.5,96.3,308.6z"/>
<path class="st0" d="M392,352c0-13.2-10.8-24-24-24s-24,10.8-24,24s10.8,24,24,24S392,365.2,392,352z M368,360c-4.4,0-8-3.6-8-8
	s3.6-8,8-8s8,3.6,8,8S372.4,360,368,360z"/>
<path class="st0" d="M424,368c-13.2,0-24,10.8-24,24s10.8,24,24,24v-16c-4.4,0-8-3.6-8-8s3.6-8,8-8s8,3.6,8,8h16
	C448,378.8,437.2,368,424,368z"/>
<path class="st0" d="M336,384c-13.2,0-24,10.8-24,24h16c0-4.4,3.6-8,8-8s8,3.6,8,8s-3.6,8-8,8v16c13.2,0,24-10.8,24-24
	S349.2,384,336,384z"/>
<path class="st0" d="M400,456c-4.4,0-8-3.6-8-8s3.6-8,8-8v-16c-13.2,0-24,10.8-24,24s10.8,24,24,24s24-10.8,24-24h-16
	C408,452.4,404.4,456,400,456z"/>
<path class="st0" d="M224,88c13.2,0,24-10.8,24-24s-10.8-24-24-24s-24,10.8-24,24S210.8,88,224,88z M224,56c4.4,0,8,3.6,8,8
	s-3.6,8-8,8s-8-3.6-8-8S219.6,56,224,56z"/>
<path class="st0" d="M272,120v-16c-4.4,0-8-3.6-8-8s3.6-8,8-8V72c-13.2,0-24,10.8-24,24S258.8,120,272,120z"/>
<path class="st0" d="M360,152c13.2,0,24-10.8,24-24s-10.8-24-24-24s-24,10.8-24,24S346.8,152,360,152z M360,120c4.4,0,8,3.6,8,8
	s-3.6,8-8,8s-8-3.6-8-8C352,123.6,355.6,120,360,120z"/>
<path class="st0" d="M128,152c13.2,0,24-10.8,24-24s-10.8-24-24-24s-24,10.8-24,24S114.8,152,128,152z M128,120c4.4,0,8,3.6,8,8
	s-3.6,8-8,8s-8-3.6-8-8C120,123.6,123.6,120,128,120z"/>
<path class="st0" d="M88,216c13.2,0,24-10.8,24-24s-10.8-24-24-24s-24,10.8-24,24S74.8,216,88,216z M88,184c4.4,0,8,3.6,8,8
	s-3.6,8-8,8s-8-3.6-8-8S83.6,184,88,184z"/>
<path class="st0" d="M256,208c0-13.2-10.8-24-24-24s-24,10.8-24,24s10.8,24,24,24S256,221.2,256,208z M232,216c-4.4,0-8-3.6-8-8
	s3.6-8,8-8s8,3.6,8,8S236.4,216,232,216z"/>
<path class="st0" d="M320,184c0-4.4,3.6-8,8-8s8,3.6,8,8s-3.6,8-8,8v16c13.2,0,24-10.8,24-24s-10.8-24-24-24s-24,10.8-24,24H320z"/>
<path class="st0" d="M424,216v-16c-4.4,0-8-3.6-8-8s3.6-8,8-8s8,3.6,8,8h16c0-13.2-10.8-24-24-24s-24,10.8-24,24S410.8,216,424,216z
	"/>
<path class="st0" d="M224,376h16v16h-16V376z"/>
<path class="st1" d="M497.8,354.5l-8.5,3.6c-3,1.3-6.1,1.9-9.3,1.9c-10.9,0-20.4-7.4-23.2-18.1l-1.4-5.6
	c6.7-12.7,11.7-26.2,14.9-40.3h1.7c17.6,0,32-14.4,32-32c0-16-11.8-29.1-27.1-31.5c7.2-15.1,11.1-31.6,11.1-48.5
	c0-61.8-50.2-112-112-112c-22.3,0-43,6.6-60.5,17.9c-2.2-2.8-3.5-6.2-3.5-9.9c0-4.2,1.7-8.3,4.7-11.3l4.6-4.6l-3.6-5.4
	C296.9,27,261.8,8,224,8c-43.9,0-83.2,25.4-101.6,64.9C67.1,79.6,24,126.8,24,184c0,16.9,3.8,33.4,11.1,48.5C19.8,234.9,8,248,8,264
	c0,17.6,14.4,32,32,32h1.7c17.1,74.5,83.5,128,160.6,128h82.5c13.8,46.2,56.6,80,107.3,80c61.8,0,112-50.2,112-112
	c0-9.4-1.3-19-3.8-28.6L497.8,354.5z M438.1,334.3c-12.8-4.2-22.1-16.1-22.1-30.3c0-2.6,0.5-5.3,1.2-8h36.7
	C450.4,309.5,445.2,322.3,438.1,334.3z M472,184c0,17-4.5,33.4-12.9,48H292.9c-8.4-14.6-12.9-31-12.9-48c0-52.9,43.1-96,96-96
	S472,131.1,472,184z M248,168c5.7,0,11.4,0.7,17,1.7c-0.6,4.7-1,9.4-1,14.3c0,16.7,3.8,33.1,10.8,48H232h-74.5
	C170.9,193.9,206.7,168,248,168z M224,24c30.5,0,58.9,14.4,77,38.8c-3.3,5.1-5,11-5,17.2c0,7.2,2.4,14,6.7,19.5
	c-16.4,14.2-28.5,33.1-34.5,54.5c-6.7-1.2-13.4-2-20.2-2c-1.6,0-3.1,0.1-4.7,0.2c-13.5-46-54.4-78-102.6-80
	C157.8,42.6,189.2,24,224,24L224,24z M136,88c42.1,0,78.4,26.7,91.2,66c-40.9,7.6-74.4,37.4-86.5,78H52.9C44.5,217.4,40,201,40,184
	C40,131.1,83.1,88,136,88z M24,264c0-8.8,7.2-16,16-16h432c8.8,0,16,7.2,16,16s-7.2,16-16,16H40C31.2,280,24,272.8,24,264z
	 M202.2,408C133.9,408,74.8,361.4,58,296h276.5C302,315.6,280,351.2,280,392c0,5.4,0.5,10.8,1.3,16H202.2z M392,488
	c-52.9,0-96-43.1-96-96s43.1-96,96-96c2.8,0,5.7,0.1,8.6,0.4c-0.4,2.5-0.6,5.1-0.6,7.6c0,24.9,19.1,45.4,43.3,47.8
	c6.2,14.5,20.5,24.2,36.7,24.2c2.2,0,4.4-0.2,6.5-0.5c1,5.6,1.5,11.1,1.5,16.5C488,444.9,444.9,488,392,488z"/>
<path class="st0" d="M440,416h16v16h-16V416z"/>
<path class="st0" d="M176,128h16v16h-16V128z"/>
</svg>
