<?xml version="1.0" encoding="utf-8"?>
<!-- Generator: Adobe Illustrator 22.0.0, SVG Export Plug-In . SVG Version: 6.00 Build 0)  -->
<svg version="1.1" id="Слой_1" xmlns="http://www.w3.org/2000/svg" xmlns:xlink="http://www.w3.org/1999/xlink" x="0px" y="0px"
	 viewBox="0 0 159.1 149.1" style="enable-background:new 0 0 159.1 149.1;" xml:space="preserve">
<style type="text/css">
	.st0{fill:#FFFFFF;}
</style>
<title>Asset 4</title>
<g id="Layer_2">
	<g id="Layer_1-2">
		<path class="st0" d="M2,141.6v6h4c0.3,0,0.5,0,0.7,0.2c0.2,0.1,0.2,0.3,0.3,0.5c0,0.2-0.1,0.4-0.3,0.5C6.5,148.9,6.3,149,6,149
			H1.2c-0.3,0-0.7-0.1-0.9-0.3C0.1,148.5,0,148.3,0,148v-6.3c0-0.3,0.1-0.6,0.3-0.8c0.2-0.2,0.4-0.3,0.7-0.3c0.3,0,0.5,0.1,0.7,0.3
			C1.9,141.1,2,141.4,2,141.6z"/>
		<path class="st0" d="M13.7,148.1v-6.5c0-0.5,0.3-1,0.8-1c0.1,0,0.1,0,0.2,0c0.3,0,0.5,0.1,0.7,0.3c0.2,0.2,0.3,0.5,0.3,0.8v6.5
			c0,0.5-0.3,1-0.9,1c0,0-0.1,0-0.1,0c-0.3,0-0.5-0.1-0.7-0.3C13.8,148.7,13.7,148.4,13.7,148.1z"/>
		<path class="st0" d="M29,142h-3.8v2.1h3.2c0.2,0,0.5,0,0.7,0.2c0.1,0.1,0.2,0.3,0.2,0.5c0,0.2-0.1,0.3-0.2,0.4
			c-0.2,0.1-0.4,0.2-0.7,0.2h-3.2v2.7c0,0.3-0.1,0.6-0.3,0.8c-0.2,0.2-0.4,0.3-0.7,0.3c-0.5,0-1-0.3-1-0.8c0-0.1,0-0.1,0-0.2v-6.3
			c0-0.2,0-0.4,0.1-0.6c0.1-0.2,0.2-0.3,0.4-0.3c0.2-0.1,0.4-0.1,0.7-0.1H29c0.2,0,0.5,0,0.7,0.2c0.1,0.1,0.2,0.3,0.2,0.5
			c0,0.2-0.1,0.4-0.2,0.5C29.5,142,29.2,142,29,142z"/>
		<path class="st0" d="M43.2,142h-4.4v2h4.1c0.2,0,0.5,0,0.7,0.2c0.1,0.1,0.2,0.3,0.2,0.4c0,0.2-0.1,0.3-0.2,0.4
			c-0.2,0.1-0.4,0.2-0.7,0.2h-4.1v2.3h4.6c0.2,0,0.5,0,0.7,0.2c0.2,0.1,0.2,0.3,0.2,0.5c0,0.2-0.1,0.4-0.2,0.5
			c-0.2,0.1-0.5,0.2-0.7,0.2H38c-0.3,0-0.7-0.1-0.9-0.3c-0.2-0.2-0.3-0.5-0.3-0.8v-6.2c0-0.2,0-0.4,0.1-0.6c0.1-0.2,0.2-0.3,0.4-0.3
			c0.2-0.1,0.4-0.1,0.7-0.1h5.2c0.2,0,0.5,0,0.7,0.2c0.1,0.1,0.2,0.3,0.2,0.5c0,0.2-0.1,0.4-0.2,0.5C43.7,141.9,43.4,142,43.2,142z"
			/>
		<path class="st0" d="M60.1,148.1v-6.5c0-0.3,0.1-0.6,0.3-0.8c0.2-0.2,0.4-0.3,0.7-0.3c0.3,0,0.5,0.1,0.7,0.3
			c0.2,0.2,0.3,0.5,0.3,0.8v6.5c0,0.3-0.1,0.6-0.3,0.8c-0.2,0.2-0.5,0.3-0.7,0.3c-0.3,0-0.5-0.1-0.7-0.3
			C60.2,148.7,60.1,148.4,60.1,148.1z"/>
		<path class="st0" d="M77.1,146.5c0,0.5-0.2,1-0.5,1.3c-0.3,0.4-0.8,0.7-1.3,0.9c-0.7,0.2-1.4,0.4-2.1,0.3c-0.8,0-1.6-0.1-2.4-0.5
			c-0.4-0.2-0.8-0.5-1.1-0.9c-0.3-0.3-0.4-0.7-0.4-1.1c0-0.2,0.1-0.4,0.3-0.5c0.2-0.2,0.4-0.2,0.6-0.2c0.2,0,0.4,0.1,0.5,0.2
			c0.2,0.1,0.3,0.3,0.4,0.5c0.1,0.2,0.2,0.5,0.4,0.7c0.2,0.2,0.4,0.3,0.6,0.4c0.3,0.1,0.7,0.2,1,0.2c0.5,0,1-0.1,1.4-0.3
			c0.3-0.2,0.5-0.5,0.5-0.9c0-0.3-0.1-0.5-0.3-0.7c-0.2-0.2-0.5-0.3-0.8-0.4c-0.3-0.1-0.7-0.2-1.3-0.3c-0.6-0.1-1.2-0.3-1.7-0.5
			c-0.4-0.2-0.8-0.4-1.1-0.8c-0.3-0.3-0.4-0.8-0.4-1.2c0-0.4,0.1-0.9,0.4-1.2c0.3-0.4,0.8-0.7,1.3-0.8c0.6-0.2,1.3-0.3,1.9-0.3
			c0.5,0,1,0.1,1.5,0.2c0.4,0.1,0.8,0.3,1.1,0.5c0.3,0.2,0.5,0.4,0.6,0.6c0.1,0.2,0.2,0.4,0.2,0.7c0,0.2-0.1,0.4-0.2,0.5
			c-0.2,0.2-0.4,0.2-0.6,0.2c-0.2,0-0.4,0-0.5-0.1c-0.2-0.1-0.3-0.3-0.4-0.5c-0.2-0.3-0.4-0.5-0.6-0.7c-0.4-0.2-0.8-0.3-1.2-0.3
			c-0.4,0-0.8,0.1-1.2,0.3c-0.3,0.1-0.5,0.4-0.5,0.7c0,0.2,0.1,0.3,0.2,0.4c0.1,0.1,0.3,0.2,0.4,0.3c0.2,0.1,0.4,0.2,0.6,0.2
			l0.9,0.2c0.5,0.1,1,0.2,1.5,0.4c0.4,0.1,0.8,0.3,1.1,0.5c0.3,0.2,0.5,0.4,0.7,0.7C77,145.8,77.1,146.1,77.1,146.5z"/>
		<path class="st0" d="M99.2,142.1h-2.1v6c0,0.6-0.4,1-1,1c-0.3,0-0.5-0.1-0.7-0.3c-0.2-0.2-0.3-0.5-0.3-0.8v-6H93
			c-0.3,0-0.5,0-0.8-0.2c-0.2-0.1-0.2-0.3-0.2-0.5c0-0.2,0.1-0.4,0.3-0.5c0.2-0.1,0.5-0.2,0.7-0.2h6.2c0.3,0,0.5,0,0.8,0.2
			c0.2,0.1,0.3,0.3,0.3,0.5c0,0.2-0.1,0.4-0.3,0.5C99.7,142.1,99.5,142.1,99.2,142.1z"/>
		<path class="st0" d="M110.8,140.6c0.9,0,1.8,0.2,2.6,0.5c0.7,0.3,1.3,0.8,1.6,1.5c0.4,0.7,0.6,1.5,0.6,2.3c0,0.6-0.1,1.2-0.3,1.7
			c-0.2,0.5-0.5,1-0.9,1.4c-0.4,0.4-0.9,0.7-1.5,0.9c-0.6,0.2-1.3,0.3-2,0.3c-0.7,0-1.4-0.1-2-0.3c-0.6-0.2-1.1-0.5-1.5-0.9
			c-0.4-0.4-0.7-0.9-0.9-1.4c-0.2-0.5-0.3-1.1-0.3-1.7c0-0.6,0.1-1.2,0.3-1.7c0.2-0.5,0.5-1,0.9-1.4c0.4-0.4,0.9-0.7,1.5-0.9
			C109.6,140.7,110.2,140.6,110.8,140.6z M113.6,144.8c0-0.5-0.1-1.1-0.3-1.6c-0.2-0.4-0.6-0.8-1-1c-0.5-0.2-1-0.3-1.5-0.3
			c-0.4,0-0.7,0.1-1.1,0.2c-0.3,0.1-0.6,0.3-0.9,0.6c-0.3,0.3-0.4,0.6-0.6,0.9c-0.1,0.4-0.2,0.8-0.2,1.3c0,0.4,0.1,0.9,0.2,1.3
			c0.1,0.4,0.3,0.7,0.6,0.9c0.3,0.2,0.5,0.4,0.9,0.6c0.3,0.1,0.7,0.2,1.1,0.2c0.5,0,1-0.1,1.4-0.3c0.4-0.2,0.8-0.6,1-1
			C113.5,146,113.6,145.4,113.6,144.8z"/>
		<path class="st0" d="M123.9,140.7h2.6c0.6,0,1.1,0,1.7,0.2c0.5,0.1,0.9,0.3,1.3,0.6c1,0.8,1.6,2,1.5,3.3c0,0.5,0,0.9-0.1,1.4
			c-0.2,0.8-0.6,1.5-1.3,2c-0.3,0.2-0.5,0.4-0.9,0.5c-0.3,0.1-0.7,0.2-1,0.3c-0.4,0.1-0.8,0.1-1.2,0.1H124c-0.3,0-0.5,0-0.8-0.1
			c-0.2-0.1-0.3-0.2-0.4-0.4c-0.1-0.2-0.1-0.4-0.1-0.6v-6c0-0.3,0-0.6,0.2-0.8C123.3,140.8,123.6,140.7,123.9,140.7z M124.7,142.1
			v5.6h1.5h0.8c0.2,0,0.4-0.1,0.6-0.1c0.2-0.1,0.4-0.1,0.5-0.3c0.7-0.6,1.1-1.5,1-2.4c0-0.6-0.1-1.3-0.4-1.8
			c-0.3-0.4-0.6-0.6-1.1-0.8c-0.5-0.1-1-0.2-1.5-0.2L124.7,142.1z"/>
		<path class="st0" d="M143.8,148l-0.5-1h-3.9l-0.5,1.1c-0.1,0.3-0.3,0.6-0.5,0.8c-0.2,0.2-0.4,0.2-0.6,0.2c-0.2,0-0.5-0.1-0.6-0.2
			c-0.2-0.1-0.3-0.3-0.3-0.5c0-0.1,0-0.2,0.1-0.4c0.1-0.1,0.1-0.3,0.2-0.5l2.5-5.4l0.3-0.6c0.1-0.2,0.2-0.4,0.3-0.5
			c0.1-0.2,0.3-0.3,0.4-0.4c0.4-0.2,0.9-0.2,1.4,0c0.2,0.1,0.3,0.2,0.4,0.3c0.1,0.1,0.2,0.3,0.3,0.4l0.3,0.6l2.5,5.3
			c0.2,0.3,0.3,0.6,0.3,0.9c0,0.2-0.1,0.4-0.3,0.5c-0.2,0.2-0.4,0.2-0.7,0.2c-0.1,0-0.3,0-0.4-0.1c-0.1,0-0.2-0.1-0.3-0.2
			c-0.1-0.1-0.2-0.2-0.3-0.4L143.8,148z M139.9,145.7h2.9l-1.5-3.4L139.9,145.7z"/>
		<path class="st0" d="M154.1,148.1v-2.6l-2.4-3.1c-0.2-0.2-0.3-0.4-0.4-0.7c-0.1-0.1-0.1-0.3-0.1-0.4c0-0.2,0.1-0.4,0.3-0.5
			c0.2-0.1,0.4-0.2,0.6-0.2c0.2,0,0.4,0.1,0.6,0.2c0.2,0.2,0.4,0.5,0.6,0.8l1.8,2.5l1.8-2.5l0.3-0.4c0.1-0.1,0.2-0.2,0.3-0.3
			c0.1-0.1,0.2-0.2,0.3-0.2c0.1-0.1,0.3-0.1,0.4-0.1c0.2,0,0.4,0.1,0.6,0.2c0.2,0.1,0.2,0.3,0.3,0.5c0,0.2,0,0.3-0.1,0.4
			c-0.1,0.2-0.3,0.4-0.4,0.6l-2.4,3.2v2.6c0,0.3-0.1,0.6-0.3,0.8c-0.2,0.2-0.4,0.3-0.7,0.3c-0.3,0-0.5-0.1-0.7-0.3
			C154.1,148.7,154,148.4,154.1,148.1z"/>
		<path class="st0" d="M52.5,31.4C52.3,31.7,52.4,31.6,52.5,31.4z"/>
		<circle class="st0" cx="113.8" cy="5.9" r="5.9"/>
		<path class="st0" d="M99.3,21.6c4.2,3.9,9.8,6.1,15.5,6.1h0.8c2.3,0,4.1-1.9,4-4.2s-1.9-4.1-4.2-4h-0.7c-7.8,0-14.3-6.2-14.5-14
			c0-2.2-1.9-4-4.1-4H96c-2.3,0.1-4.1,2-4,4.2c0,0,0,0,0,0C92.2,11.8,94.8,17.5,99.3,21.6z"/>
		<path class="st0" d="M88.4,34.1c3.1,2.9,6.8,5.2,10.8,6.7c3.8,1.4,7.8,2.2,11.8,2.2c0.4,0,0.8,0,1.2,0c0.9,0,1.8-0.4,2.5-1.1
			c1.4-1.4,1.3-3.6-0.1-5c-0.7-0.6-1.6-1-2.5-1H112h-0.9c-6.7,0-13.2-2.6-18.1-7.3c-4.9-4.7-7.8-11.1-8-17.9
			c-0.1-1.9-1.6-3.4-3.6-3.4h-0.1c-2,0.1-3.5,1.7-3.4,3.7c0.1,4.4,1.1,8.8,3,12.8C82.7,27.7,85.3,31.2,88.4,34.1z"/>
		<path class="st0" d="M109.3,52.8c-0.1-1.7-1.5-3.1-3.3-3.1c-18.6,0.6-34.1-13.9-34.8-32.4c-0.1-1.7-1.5-3.1-3.3-3
			c-0.5,0-0.9,0.1-1.3,0.3l0,0c-6.7,3-12.8,7.3-18,12.6c-12,12.2-12.5,31.6-1.3,44.6l-6.2,6.3c-1.2,1.1-1.2,3-0.1,4.1
			c1.1,1.2,3,1.2,4.1,0.1c0.1-0.1,0.1-0.1,0.2-0.2l6.2-6.3c13.1,11,32.5,10.1,44.5-2.1c5.4-5.6,9.7-12.1,12.7-19.2l0,0
			C109.1,54,109.3,53.4,109.3,52.8z M65.3,21.9c1.1,8,4.7,15.4,10.2,21.3L65.1,53.5l-7.6-26.1C59.2,26.1,62.7,23.5,65.3,21.9
			L65.3,21.9z M52.5,31.4L52.5,31.4C52.4,31.6,52.3,31.7,52.5,31.4z M51.5,67.5c-8.9-10.5-8.4-26,1.1-36l7.8,26.8L51.5,67.5z
			 M92,69.6c-9.8,9.9-25.4,10.8-36.2,2l8.9-9.2l27,7.3C91,70.3,92.5,69,92,69.6L92,69.6z M95.6,64.7l-26.3-7.1l10.4-10.4
			c3.3,2.7,6.9,4.8,10.9,6.3c3.5,1.3,7.2,2.2,11,2.5C100,58.6,96.9,62.8,95.6,64.7L95.6,64.7z"/>
		<path class="st0" d="M17.1,128.5h-7c-0.7,0-1.5-0.2-2.1-0.6c-0.5-0.3-0.8-0.9-0.9-1.5v-21.8c0-5.5-7.1-5.3-7.1,0v23.5
			c0,2.4,1.1,4.7,2.9,6.2c0.9,0.6,1.8,0.9,2.9,1h11.3C21.5,135.3,21.5,128.5,17.1,128.5z"/>
		<path class="st0" d="M29.6,100.7c-2,0-3.6,1.7-3.6,3.8c0,0,0,0,0,0v27.1c-0.1,2,1.4,3.7,3.4,3.8s3.7-1.4,3.8-3.4
			c0-0.1,0-0.3,0-0.4v-27.1C33.2,102.4,31.6,100.8,29.6,100.7z"/>
		<path class="st0" d="M90.9,100.7c-2,0.1-3.6,1.7-3.6,3.8v27.1c-0.1,2,1.4,3.7,3.4,3.8s3.7-1.4,3.8-3.4c0-0.1,0-0.3,0-0.4v-27.1
			C94.5,102.4,92.9,100.7,90.9,100.7z"/>
		<path class="st0" d="M123.9,102.8c-2.1-1.4-4.6-2.2-7.1-2.1h-4.3c-2.5-0.1-5,0.7-7.1,2.1c-1.8,1.1-2.9,3-2.9,5.1v23.6
			c-0.1,2,1.5,3.7,3.6,3.8l0,0c2-0.1,3.6-1.7,3.6-3.8c0,0,0,0,0,0v-21.9c0-0.6,0.3-1.2,0.9-1.5c0.6-0.4,1.3-0.6,2.1-0.6h4.3
			c0.7,0,1.5,0.2,2.1,0.6c0.5,0.3,0.8,0.9,0.8,1.5v21.9c-0.1,2,1.4,3.7,3.4,3.8s3.7-1.4,3.8-3.4c0-0.1,0-0.3,0-0.4v-23.6
			C126.8,105.8,125.7,103.9,123.9,102.8z"/>
		<path class="st0" d="M156.2,102.8c-2.1-1.4-4.6-2.2-7.1-2.1h-4.3c-2.5-0.1-5,0.7-7.1,2.1c-1.8,1.1-2.9,3-2.9,5.1v23.6
			c-0.1,2,1.3,3.7,3.3,3.8c2,0.1,3.7-1.3,3.8-3.3c0-0.2,0-0.4,0-0.5v-21.9c0-0.6,0.3-1.2,0.9-1.5c0.6-0.4,1.3-0.6,2.1-0.6h4.3
			c0.7,0,1.5,0.2,2.1,0.6c0.5,0.3,0.8,0.9,0.9,1.5v21.9c-0.1,2,1.4,3.7,3.4,3.8c2,0.1,3.7-1.4,3.8-3.4c0-0.1,0-0.3,0-0.4v-23.6
			C159.1,105.8,158,103.9,156.2,102.8z"/>
		<circle class="st0" cx="73.1" cy="117.4" r="4.9"/>
		<path class="st0" d="M60.1,100.8H40.6c-1.3,0-2.4,1.7-2.4,3.1s1.1,3.1,2.4,3.1h3.8c1.2,0,2.2,0.9,2.4,2.1v22.4
			c-0.1,2,1.3,3.7,3.3,3.8c2,0.1,3.7-1.3,3.8-3.3c0-0.2,0-0.4,0-0.5v-22.5c0.2-1.1,1.2-2,2.4-2h3.8c1.3,0,2.4-1.7,2.4-3.1
			S61.4,100.8,60.1,100.8z"/>
	</g>
</g>
</svg>
