<svg id="Isolation_Mode" data-name="Isolation Mode" xmlns="http://www.w3.org/2000/svg" viewBox="0 0 250.01 84.39"><defs><style>.cls-1{fill:#64b1a9;}.cls-2{fill:none;}.cls-3{fill:#454746;}</style></defs><title>logo</title><path class="cls-1" d="M92.83,76.89v6h4a1.18,1.18,0,0,1,.73.19.6.6,0,0,1,.25.5.58.58,0,0,1-.25.49,1.22,1.22,0,0,1-.73.19H92.08a1.38,1.38,0,0,1-.93-.25,1,1,0,0,1-.28-.78V76.89a1,1,0,0,1,.27-.76,1,1,0,0,1,.7-.25,1,1,0,0,1,.72.25A1,1,0,0,1,92.83,76.89Z"/><path class="cls-1" d="M104.57,83.37V76.89a1,1,0,0,1,.27-.76,1,1,0,0,1,.7-.25,1,1,0,0,1,.72.25,1,1,0,0,1,.27.76v6.48a1,1,0,0,1-.27.76,1,1,0,0,1-.72.26,1,1,0,0,1-.7-.26A1,1,0,0,1,104.57,83.37Z"/><path class="cls-1" d="M119.91,77.3h-3.86v2.11h3.23a1.12,1.12,0,0,1,.67.17.54.54,0,0,1,.22.46.52.52,0,0,1-.22.45,1.12,1.12,0,0,1-.67.17h-3.23v2.71a1,1,0,0,1-.27.77,1,1,0,0,1-.71.25,1,1,0,0,1-.7-.26,1,1,0,0,1-.28-.76V77a1.17,1.17,0,0,1,.13-.59.72.72,0,0,1,.39-.33,1.91,1.91,0,0,1,.68-.1h4.62a1.11,1.11,0,0,1,.7.18.55.55,0,0,1,.23.46.58.58,0,0,1-.23.47A1.11,1.11,0,0,1,119.91,77.3Z"/><path class="cls-1" d="M134.08,77.3h-4.41v2h4.06a1,1,0,0,1,.67.18.53.53,0,0,1,.23.45.56.56,0,0,1-.22.45,1.06,1.06,0,0,1-.68.18h-4.06v2.34h4.57a1.11,1.11,0,0,1,.69.18.6.6,0,0,1,.24.49.57.57,0,0,1-.24.47,1.11,1.11,0,0,1-.69.19h-5.33A1.33,1.33,0,0,1,128,84a1,1,0,0,1-.28-.78V77a1.29,1.29,0,0,1,.12-.59.79.79,0,0,1,.39-.33,1.94,1.94,0,0,1,.69-.1h5.17a1.11,1.11,0,0,1,.7.18.55.55,0,0,1,.23.46.58.58,0,0,1-.23.47A1.11,1.11,0,0,1,134.08,77.3Z"/><path class="cls-1" d="M151,83.37V76.89a.9.9,0,0,1,1-1,1,1,0,0,1,.72.25,1,1,0,0,1,.27.76v6.48a1,1,0,0,1-.27.76,1,1,0,0,1-.72.26.93.93,0,0,1-1-1Z"/><path class="cls-1" d="M167.92,81.78a2.19,2.19,0,0,1-.45,1.34,3.05,3.05,0,0,1-1.33.93,5.81,5.81,0,0,1-2.06.34,5.44,5.44,0,0,1-2.37-.46,3,3,0,0,1-1.07-.89,1.82,1.82,0,0,1-.41-1.07.65.65,0,0,1,.25-.52.88.88,0,0,1,.63-.22.83.83,0,0,1,.52.17,1.33,1.33,0,0,1,.37.5,3,3,0,0,0,.4.66,1.55,1.55,0,0,0,.6.43,2.47,2.47,0,0,0,1,.17,2.6,2.6,0,0,0,1.42-.34A1,1,0,0,0,166,82a.82.82,0,0,0-.29-.67,2,2,0,0,0-.76-.39c-.31-.09-.72-.18-1.24-.29a10,10,0,0,1-1.75-.48,2.77,2.77,0,0,1-1.11-.76,1.75,1.75,0,0,1-.42-1.19,1.86,1.86,0,0,1,.44-1.21,2.76,2.76,0,0,1,1.26-.81,6,6,0,0,1,1.94-.28,5.4,5.4,0,0,1,1.54.19,3.18,3.18,0,0,1,1.08.5,2,2,0,0,1,.63.65,1.36,1.36,0,0,1,.2.67.74.74,0,0,1-.25.53.86.86,0,0,1-.62.24.84.84,0,0,1-.51-.14,2,2,0,0,1-.38-.47,2.4,2.4,0,0,0-.63-.73,2.16,2.16,0,0,0-1.19-.26,2.33,2.33,0,0,0-1.23.29.8.8,0,0,0-.46.68.6.6,0,0,0,.16.42,1.19,1.19,0,0,0,.43.31,3.19,3.19,0,0,0,.56.21l.94.21c.55.11,1,.23,1.48.36a5,5,0,0,1,1.13.47,2.26,2.26,0,0,1,.73.71A2.06,2.06,0,0,1,167.92,81.78Z"/><path class="cls-1" d="M190.07,77.39h-2.14v6a1,1,0,0,1-.27.77,1,1,0,0,1-.7.25,1,1,0,0,1-.71-.26,1,1,0,0,1-.28-.76v-6h-2.14a1.24,1.24,0,0,1-.74-.18.6.6,0,0,1-.25-.5.62.62,0,0,1,.26-.51,1.25,1.25,0,0,1,.73-.18h6.24a1.18,1.18,0,0,1,.75.19.59.59,0,0,1,.25.5.6.6,0,0,1-.25.5A1.3,1.3,0,0,1,190.07,77.39Z"/><path class="cls-1" d="M201.72,75.88a5.87,5.87,0,0,1,2.59.52,3.65,3.65,0,0,1,1.63,1.47,4.42,4.42,0,0,1,.56,2.25,4.76,4.76,0,0,1-.31,1.73,3.51,3.51,0,0,1-.91,1.36,4,4,0,0,1-1.49.87,6.7,6.7,0,0,1-4.06,0,4.09,4.09,0,0,1-1.5-.87,3.78,3.78,0,0,1-.91-1.37,4.82,4.82,0,0,1-.31-1.72,4.68,4.68,0,0,1,.32-1.74,3.79,3.79,0,0,1,.93-1.35,4.22,4.22,0,0,1,1.48-.85A6.35,6.35,0,0,1,201.72,75.88Zm2.79,4.23a3.4,3.4,0,0,0-.35-1.57,2.26,2.26,0,0,0-1-1,3.24,3.24,0,0,0-2.54-.15,2.4,2.4,0,0,0-.86.55,2.48,2.48,0,0,0-.57.92,3.52,3.52,0,0,0-.21,1.25,3.64,3.64,0,0,0,.21,1.27,2.43,2.43,0,0,0,.59.94,2.5,2.5,0,0,0,.87.56,3.14,3.14,0,0,0,1.08.18,3,3,0,0,0,1.38-.32,2.28,2.28,0,0,0,1-1A3.29,3.29,0,0,0,204.51,80.11Z"/><path class="cls-1" d="M214.8,76h2.55a7.64,7.64,0,0,1,1.71.16,3.27,3.27,0,0,1,1.3.59,3.86,3.86,0,0,1,1.51,3.34,5.69,5.69,0,0,1-.15,1.35,4,4,0,0,1-.47,1.11,3.73,3.73,0,0,1-.82.87,3.39,3.39,0,0,1-.85.48,4.49,4.49,0,0,1-1,.25,8.61,8.61,0,0,1-1.2.08h-2.55a1.87,1.87,0,0,1-.81-.14.64.64,0,0,1-.35-.39,2,2,0,0,1-.09-.65V77a1,1,0,0,1,.29-.78A1.41,1.41,0,0,1,214.8,76Zm.76,1.32v5.58H217l.77,0a3.17,3.17,0,0,0,.57-.11,1.69,1.69,0,0,0,.52-.26,2.8,2.8,0,0,0,1-2.43,3.17,3.17,0,0,0-.43-1.83,1.92,1.92,0,0,0-1.07-.77,6.14,6.14,0,0,0-1.53-.16Z"/><path class="cls-1" d="M234.68,83.31l-.47-1h-3.93l-.46,1.06a3.68,3.68,0,0,1-.46.83.83.83,0,0,1-.63.22,1,1,0,0,1-.66-.23.7.7,0,0,1-.28-.53.86.86,0,0,1,.07-.34,4.69,4.69,0,0,1,.21-.5l2.48-5.35c.07-.15.16-.33.25-.55a2.85,2.85,0,0,1,.32-.53,1.18,1.18,0,0,1,.44-.35,1.56,1.56,0,0,1,.68-.13,1.53,1.53,0,0,1,.68.13,1.31,1.31,0,0,1,.45.34,2.6,2.6,0,0,1,.28.45c.08.16.18.37.29.63l2.53,5.31a2.4,2.4,0,0,1,.3.88.69.69,0,0,1-.28.53,1,1,0,0,1-.68.24,1.13,1.13,0,0,1-.39-.07.82.82,0,0,1-.28-.19,1.56,1.56,0,0,1-.24-.38C234.81,83.59,234.74,83.44,234.68,83.31ZM230.79,81h2.9l-1.46-3.39Z"/><path class="cls-1" d="M244.93,83.37V80.76l-2.37-3.11a6.15,6.15,0,0,1-.44-.66,1,1,0,0,1-.13-.41.62.62,0,0,1,.26-.49,1,1,0,0,1,.65-.21.86.86,0,0,1,.61.19,5.62,5.62,0,0,1,.62.77l1.81,2.5,1.83-2.5.28-.38a1.81,1.81,0,0,1,.25-.3,1,1,0,0,1,.3-.21,1,1,0,0,1,.4-.07,1,1,0,0,1,.62.2.63.63,0,0,1,.24.48.94.94,0,0,1-.12.44,6.39,6.39,0,0,1-.43.6l-2.42,3.16v2.61a1,1,0,0,1-.28.76,1,1,0,0,1-1.68-.76Z"/><path class="cls-2" d="M26,21.89c-2.62,1.66-6.12,4.22-7.85,5.48L25.81,53.5,36.15,43.16A39.59,39.59,0,0,1,26,21.89Z"/><circle class="cls-1" cx="74.57" cy="5.89" r="5.89"/><path class="cls-1" d="M60,21.59a22.71,22.71,0,0,0,15.52,6.12l.81,0a4.11,4.11,0,0,0-.14-8.22h-.66A14.49,14.49,0,0,1,61,5.44a4.09,4.09,0,0,0-4.1-4h-.15a4.12,4.12,0,0,0-4,4.25A22.62,22.62,0,0,0,60,21.59Z"/><path class="cls-3" d="M49.17,34.08A33.13,33.13,0,0,0,60,40.82,33,33,0,0,0,71.8,43c.4,0,.79,0,1.18,0a3.54,3.54,0,0,0,2.48-1.12,3.59,3.59,0,0,0,1-2.55,3.54,3.54,0,0,0-3.55-3.42h-.12l-.92,0a26,26,0,0,1-18.11-7.33,25.94,25.94,0,0,1-8-17.89,3.53,3.53,0,0,0-3.55-3.42h-.12a3.55,3.55,0,0,0-3.42,3.67A33.2,33.2,0,0,0,49.17,34.08Z"/><path class="cls-1" d="M70,52.81a3.16,3.16,0,0,0-3.26-3.05A33.67,33.67,0,0,1,32,17.31a3.15,3.15,0,0,0-3.26-3,3.22,3.22,0,0,0-1.31.34v0a58.49,58.49,0,0,0-18,12.57A32.84,32.84,0,0,0,8.12,71.73L1.89,78.07a2.93,2.93,0,1,0,4.18,4.1l6.23-6.34a32.81,32.81,0,0,0,44.53-2.1A63.83,63.83,0,0,0,69.54,54.55h0A3.15,3.15,0,0,0,70,52.81ZM26,21.89A39.59,39.59,0,0,0,36.15,43.16L25.81,53.5,18.19,27.37C19.92,26.11,23.42,23.55,26,21.89ZM13.27,31.44h0C13.13,31.58,13,31.66,13.27,31.44Zm-1,36.09a27,27,0,0,1,1.07-36L21.11,58.3Zm40.42,2.1a27,27,0,0,1-36.24,2l8.88-9.23,27,7.32C51.76,70.33,53.22,69.05,52.65,69.63Zm3.62-4.9L30,57.61,40.42,47.17a40.09,40.09,0,0,0,10.88,6.3,39.56,39.56,0,0,0,11,2.48C60.73,58.65,57.64,62.77,56.27,64.73Z"/><path class="cls-3" d="M108,63.75h-7a3.44,3.44,0,0,1-2.06-.62A1.76,1.76,0,0,1,98,61.66V39.89c0-5.54-7.15-5.26-7.15,0V63.34a8.19,8.19,0,0,0,2.92,6.24,5.86,5.86,0,0,0,2.89,1H108C112.41,70.55,112.34,63.75,108,63.75Z"/><path class="cls-3" d="M120.48,36a3.68,3.68,0,0,0-3.57,3.77V66.78a3.58,3.58,0,1,0,7.14,0V39.72A3.68,3.68,0,0,0,120.48,36Z"/><path class="cls-3" d="M181.76,36a3.68,3.68,0,0,0-3.57,3.77V66.78a3.58,3.58,0,1,0,7.14,0V39.72A3.68,3.68,0,0,0,181.76,36Z"/><path class="cls-3" d="M214.8,38A11.94,11.94,0,0,0,207.66,36h-4.32A12,12,0,0,0,196.19,38a6.16,6.16,0,0,0-2.91,5.12V66.78a3.67,3.67,0,0,0,3.57,3.77h0a3.68,3.68,0,0,0,3.57-3.77V44.85a1.78,1.78,0,0,1,.85-1.48,3.45,3.45,0,0,1,2.07-.62h4.32a3.42,3.42,0,0,1,2.06.62,1.79,1.79,0,0,1,.86,1.48V66.78a3.58,3.58,0,1,0,7.14,0V43.16A6.15,6.15,0,0,0,214.8,38Z"/><path class="cls-3" d="M247.09,38A11.94,11.94,0,0,0,240,36h-4.32A12,12,0,0,0,228.48,38a6.16,6.16,0,0,0-2.91,5.12V66.78a3.58,3.58,0,1,0,7.14,0V44.85a1.78,1.78,0,0,1,.85-1.48,3.45,3.45,0,0,1,2.07-.62H240a3.42,3.42,0,0,1,2.06.62,1.79,1.79,0,0,1,.86,1.48V66.78a3.58,3.58,0,1,0,7.14,0V43.16A6.15,6.15,0,0,0,247.09,38Z"/><circle class="cls-1" cx="164" cy="52.7" r="4.95"/><path class="cls-3" d="M151,36.06h-19.5c-1.33,0-2.42,1.71-2.42,3.12s1.09,3.12,2.42,3.12h3.8a2.45,2.45,0,0,1,2.38,2.12V66.83a3.58,3.58,0,1,0,7.15,0V44.34a2.46,2.46,0,0,1,2.37-2H151c1.34,0,2.43-1.71,2.43-3.12S152.29,36.06,151,36.06Z"/></svg>