<?xml version="1.0" encoding="utf-8"?>
<!-- Generator: Adobe Illustrator 22.0.0, SVG Export Plug-In . SVG Version: 6.00 Build 0)  -->
<svg version="1.1" id="Слой_1" xmlns="http://www.w3.org/2000/svg" xmlns:xlink="http://www.w3.org/1999/xlink" x="0px" y="0px"
	 viewBox="0 0 30 19" style="enable-background:new 0 0 30 19;" xml:space="preserve">
<style type="text/css">
	.st0{fill-rule:evenodd;clip-rule:evenodd;fill:#FFFFFF;}
</style>
<g>
	<path class="st0" d="M1.5,16h27c0.8,0,1.5,0.7,1.5,1.5c0,0.8-0.7,1.5-1.5,1.5h-27C0.7,19,0,18.3,0,17.5C0,16.7,0.7,16,1.5,16z"/>
	<path class="st0" d="M1.5,8h3C5.3,8,6,8.7,6,9.5C6,10.3,5.3,11,4.5,11h-3C0.7,11,0,10.3,0,9.5C0,8.7,0.7,8,1.5,8z"/>
	<path class="st0" d="M9.5,8h19C29.3,8,30,8.7,30,9.5c0,0.8-0.7,1.5-1.5,1.5h-19C8.7,11,8,10.3,8,9.5C8,8.7,8.7,8,9.5,8z"/>
	<path class="st0" d="M1.5,0h27C29.3,0,30,0.7,30,1.5C30,2.3,29.3,3,28.5,3h-27C0.7,3,0,2.3,0,1.5C0,0.7,0.7,0,1.5,0z"/>
</g>
</svg>
