<?xml version="1.0" encoding="utf-8"?>
<!-- Generator: Adobe Illustrator 22.0.0, SVG Export Plug-In . SVG Version: 6.00 Build 0)  -->
<svg version="1.1" id="Слой_1" xmlns="http://www.w3.org/2000/svg" xmlns:xlink="http://www.w3.org/1999/xlink" x="0px" y="0px"
	 viewBox="0 0 22.7 22.3" style="enable-background:new 0 0 22.7 22.3;" xml:space="preserve">
<style type="text/css">
	.st0{fill-rule:evenodd;clip-rule:evenodd;fill:#FFFFFF;}
</style>
<g>
	<path class="st0" d="M0.4,19.5l2.1-2.1c0.6-0.6,1.5-0.6,2.1,0c0.6,0.6,0.6,1.5,0,2.1l-2.1,2.1c-0.6,0.6-1.5,0.6-2.1,0
		C-0.1,21.1-0.1,20.1,0.4,19.5z"/>
	<path class="st0" d="M6.1,13.9L19.5,0.4c0.6-0.6,1.5-0.6,2.1,0c0.6,0.6,0.6,1.5,0,2.1L8.2,16c-0.6,0.6-1.5,0.6-2.1,0
		C5.5,15.4,5.5,14.5,6.1,13.9z"/>
	<path class="st0" d="M3.2,0.6l19.1,19.1c0.6,0.6,0.6,1.5,0,2.1c-0.6,0.6-1.5,0.6-2.1,0L1.1,2.7c-0.6-0.6-0.6-1.5,0-2.1
		C1.7,0,2.6,0,3.2,0.6z"/>
</g>
</svg>
