<?xml version="1.0" encoding="utf-8"?>
<!-- Generator: Adobe Illustrator 22.0.0, SVG Export Plug-In . SVG Version: 6.00 Build 0)  -->
<svg version="1.1" id="Слой_1" xmlns="http://www.w3.org/2000/svg" xmlns:xlink="http://www.w3.org/1999/xlink" x="0px" y="0px"
	 viewBox="0 0 86.2 6.3" style="enable-background:new 0 0 86.2 6.3;" xml:space="preserve">
<style type="text/css">
	.st0{fill:#0CB4AB;}
	.st1{fill-rule:evenodd;clip-rule:evenodd;fill:#0CB4AB;}
</style>
<g>
	<path class="st0" d="M2.7,1.3c0.8,0,1.5,0.7,1.5,1.5c0,0.8-0.7,1.5-1.5,1.5c-0.8,0-1.5-0.7-1.5-1.5C1.2,1.9,1.9,1.3,2.7,1.3
		 M2.7,0.3c-1.4,0-2.5,1.1-2.5,2.5c0,1.4,1.1,2.5,2.5,2.5c1.4,0,2.5-1.1,2.5-2.5C5.2,1.4,4.1,0.3,2.7,0.3L2.7,0.3z"/>
</g>
<path class="st1" d="M5.8,2.3h51c0.3,0,0.5,0.2,0.5,0.5c0,0.3-0.2,0.5-0.5,0.5h-51C5.5,3.3,5.2,3,5.2,2.8C5.2,2.5,5.5,2.3,5.8,2.3z"
	/>
<path class="st1" d="M34.7,5.3h51c0.3,0,0.5,0.2,0.5,0.5c0,0.3-0.2,0.5-0.5,0.5h-51c-0.3,0-0.5-0.2-0.5-0.5
	C34.2,5.5,34.5,5.3,34.7,5.3z"/>
</svg>
